<svg width="8" height="9" viewBox="0 0 8 9" fill="none" xmlns="http://www.w3.org/2000/svg">
<path d="M6.73016 2.65873L1.09524 8.30952C0.968254 8.43651 0.817354 8.5 0.64254 8.5C0.467725 8.5 0.317037 8.43651 0.190476 8.30952C0.0634919 8.18254 0 8.03164 0 7.85683C0 7.68201 0.0634919 7.53132 0.190476 7.40476L5.84127 1.76984H1.01587C0.835979 1.76984 0.685079 1.70889 0.563175 1.58699C0.44127 1.46508 0.380529 1.31439 0.380952 1.13492C0.380952 0.955029 0.441905 0.804129 0.563809 0.682224C0.685714 0.56032 0.836402 0.499579 1.01587 0.500002H7.36508C7.54497 0.500002 7.69587 0.560955 7.81778 0.682859C7.93968 0.804764 8.00042 0.955452 8 1.13492V7.48413C8 7.66402 7.93905 7.81492 7.81714 7.93682C7.69524 8.05873 7.54455 8.11947 7.36508 8.11905C7.18518 8.11905 7.03428 8.05809 6.91238 7.93619C6.79047 7.81429 6.72973 7.6636 6.73016 7.48413V2.65873Z" fill="#494646"/>
</svg>
