<svg width="62" height="14" viewBox="0 0 62 14" fill="none" xmlns="http://www.w3.org/2000/svg">
<path d="M5.87008e-05 8.69192C-0.00304 8.12429 0.116578 7.56295 0.350387 7.04791C0.577747 6.53343 0.900443 6.06868 1.3007 5.67927C1.70239 5.28306 2.1719 4.96544 2.68591 4.74219C3.21543 4.51233 3.78564 4.39621 4.36104 4.40105C4.85586 4.39157 5.34749 4.48382 5.80664 4.67232C6.1817 4.82981 6.53828 5.02971 6.86971 5.26827C7.19908 5.51394 7.49792 5.79964 7.75962 6.11904L6.6281 7.2082C6.45664 6.98342 6.25925 6.78056 6.0402 6.60403C5.81687 6.44045 5.57648 6.30261 5.32343 6.19302C5.01537 6.06036 4.68323 5.99593 4.34896 6.00396C4.00654 6.00036 3.66736 6.07184 3.35435 6.21357C3.04281 6.34924 2.75878 6.54298 2.51678 6.78487C2.26528 7.03119 2.06587 7.32747 1.93082 7.65545C1.79578 7.98344 1.72797 8.33617 1.73156 8.69192C1.72777 9.05513 1.79912 9.41506 1.94096 9.74819C2.07678 10.0674 2.27239 10.3564 2.51678 10.599C2.76196 10.8468 3.05005 11.0461 3.36643 11.1867C3.67978 11.3278 4.01854 11.4006 4.36104 11.4004C4.70336 11.399 5.0418 11.3262 5.35565 11.1867C5.61445 11.0813 5.8593 10.9432 6.08449 10.7757C6.31657 10.5881 6.52849 10.376 6.71669 10.1428L7.84821 11.2278C7.57753 11.5613 7.26631 11.8583 6.92206 12.1115C6.58019 12.3562 6.21286 12.5615 5.82678 12.7238C5.36028 12.9112 4.8623 13.0034 4.36104 12.9951C3.78564 13 3.21543 12.8838 2.68591 12.654C2.1719 12.4307 1.70239 12.1131 1.3007 11.7169C0.899167 11.3238 0.576398 10.8548 0.350387 10.3359C0.11683 9.8208 -0.00277587 9.25952 5.87008e-05 8.69192Z" fill="#F6F3EC"/>
<path d="M24.1889 5.46902C24.3916 5.26102 24.6205 5.08135 24.8694 4.93471C25.1262 4.78753 25.3958 4.66507 25.6748 4.56892C26.0146 4.45225 26.3713 4.39527 26.7298 4.40041C27.2003 4.39406 27.6676 4.47914 28.1069 4.65112C28.5121 4.81244 28.8787 5.0605 29.1821 5.3786C29.4878 5.71048 29.7247 6.10189 29.8787 6.5294C30.0538 7.02187 30.1398 7.54271 30.1324 8.06655V12.9616H28.3767V8.09121C28.3858 7.81309 28.3394 7.53599 28.2405 7.27671C28.1415 7.01743 27.9919 6.78136 27.8009 6.58283C27.6126 6.39258 27.3885 6.24317 27.1422 6.14358C26.8958 6.04399 26.6323 5.99628 26.3674 6.00332C26.0749 5.98916 25.7828 6.0374 25.5096 6.14497C25.2364 6.25254 24.9882 6.41706 24.7808 6.62804C24.3571 7.1273 24.1443 7.77749 24.1889 8.43645V12.9575H22.4453V0.5H24.1889V5.46902Z" fill="#F6F3EC"/>
<path d="M37.6194 11.9743C37.4143 12.1703 37.1857 12.3388 36.9389 12.4758C36.6805 12.6139 36.4111 12.7294 36.1335 12.821C35.7925 12.9313 35.4362 12.9841 35.0785 12.9772C34.6081 12.9832 34.1408 12.8982 33.7014 12.7265C33.3012 12.566 32.9389 12.3209 32.6383 12.0072C32.3326 11.6753 32.0957 11.2839 31.9417 10.8564C31.7662 10.3626 31.6802 9.84037 31.688 9.31516V4.41602H33.4235V9.2905C33.4139 9.56843 33.4603 9.84542 33.5601 10.1042C33.6599 10.363 33.8108 10.5981 34.0034 10.7948C34.1911 10.9858 34.4151 11.1357 34.6616 11.2354C34.9081 11.335 35.1719 11.3823 35.4369 11.3743C35.7334 11.3919 36.0301 11.3454 36.3077 11.2378C36.5853 11.1301 36.8374 10.9637 37.0476 10.7496C37.4709 10.2501 37.6837 9.60006 37.6395 8.94115V4.42013H39.3831V12.9608H37.6194V11.9743Z" fill="#F6F3EC"/>
<path d="M45.1978 11.3751C45.5232 11.3773 45.8451 11.3057 46.1401 11.1655C46.4402 11.0265 46.7131 10.8329 46.9454 10.5942C47.1871 10.3526 47.3799 10.0649 47.5132 9.74755C47.6513 9.41252 47.7224 9.0527 47.7224 8.68922C47.7224 8.32574 47.6513 7.96592 47.5132 7.63089C47.3811 7.31386 47.1896 7.02625 46.9495 6.78422C46.7161 6.54683 46.4434 6.35342 46.1441 6.21293C45.8492 6.07203 45.5275 5.999 45.2018 5.999C44.8762 5.999 44.5545 6.07203 44.2596 6.21293C43.9595 6.3521 43.6866 6.54567 43.4542 6.78422C43.2141 7.02714 43.0214 7.31447 42.8865 7.63089C42.7484 7.96592 42.6772 8.32574 42.6772 8.68922C42.6772 9.0527 42.7484 9.41252 42.8865 9.74755C43.1527 10.3834 43.6405 10.8959 44.2556 11.1861C44.5506 11.3262 44.8724 11.3978 45.1978 11.3957M45.371 4.40863C45.9089 4.40624 46.4413 4.51968 46.9333 4.74154C47.4208 4.95916 47.8646 5.26714 48.242 5.64986C48.6178 6.04064 48.9171 6.50096 49.1239 7.00617C49.5599 8.08122 49.5599 9.28899 49.1239 10.3641C48.6995 11.3794 47.9097 12.19 46.9172 12.6287C46.4252 12.8505 45.8928 12.964 45.3549 12.9616C44.974 12.966 44.5949 12.9092 44.2314 12.7931C43.9388 12.6954 43.6557 12.5702 43.3858 12.4191C43.1286 12.2705 42.8917 12.0881 42.6811 11.8765V12.9616H40.9375V0.5H42.6811V5.55533C42.9002 5.33457 43.1466 5.14391 43.414 4.98814C43.6823 4.8239 43.9655 4.68627 44.2596 4.57714C44.6207 4.44927 45.0009 4.38668 45.383 4.39219" fill="#F6F3EC"/>
<path d="M15.0742 3.14651C14.0693 3.14326 13.0862 3.44463 12.2493 4.01241C11.4125 4.5802 10.7597 5.38882 10.3737 6.33576C9.98766 7.2827 9.88583 8.3253 10.0811 9.33139C10.2763 10.3375 10.7599 11.2617 11.4704 11.987C12.181 12.7122 13.0865 13.2057 14.0722 13.405C15.0579 13.6043 16.0794 13.5004 17.0071 13.1064C17.9349 12.7124 18.7271 12.0461 19.2834 11.192C19.8397 10.3378 20.135 9.33433 20.1318 8.3087C20.1286 6.9406 19.5947 5.62947 18.6469 4.66208C17.6991 3.69468 16.4146 3.14977 15.0742 3.14651ZM15.2433 10.8569C15.2324 10.8686 15.2193 10.8779 15.2047 10.8843C15.1902 10.8906 15.1746 10.8939 15.1587 10.8939C15.1429 10.8939 15.1273 10.8906 15.1127 10.8843C15.0982 10.8779 15.0851 10.8686 15.0742 10.8569L14.5467 10.3185C14.5352 10.3074 14.5261 10.294 14.5199 10.2791C14.5136 10.2643 14.5104 10.2483 14.5104 10.2322C14.5104 10.216 14.5136 10.2001 14.5199 10.1852C14.5261 10.1704 14.5352 10.157 14.5467 10.1459L15.9721 8.8019H12.791C12.7024 8.8019 12.6662 8.7608 12.6662 8.71148V7.8977C12.6662 7.8748 12.6751 7.85285 12.6909 7.83667C12.7068 7.82048 12.7283 7.81139 12.7507 7.81139H15.9721L14.5507 6.48385C14.5387 6.47305 14.5291 6.45977 14.5225 6.44489C14.5159 6.43001 14.5125 6.41387 14.5125 6.39754C14.5125 6.38121 14.5159 6.36507 14.5225 6.35019C14.5291 6.33531 14.5387 6.32203 14.5507 6.31123L15.0782 5.78514H15.2473L17.752 8.3087L15.2433 10.8569Z" fill="#F6F3EC"/>
<path d="M57.5852 10.7333H56.498V7.21106H55.2658V6.5288C55.9262 6.5288 56.8483 5.96572 56.8483 5.55061H57.5852V10.7333ZM56.9288 3.07227C55.9257 3.07471 54.9458 3.3806 54.1129 3.9513C53.28 4.52199 52.6316 5.33188 52.2496 6.2786C51.8675 7.22532 51.769 8.26639 51.9665 9.27024C52.1639 10.2741 52.6485 11.1957 53.3589 11.9185C54.0694 12.6414 54.9738 13.133 55.958 13.3314C56.9421 13.5298 57.9618 13.4259 58.8881 13.033C59.8144 12.64 60.6058 11.9756 61.1623 11.1237C61.7188 10.2718 62.0154 9.27067 62.0146 8.24679C62.0146 7.56691 61.8833 6.8937 61.6283 6.26563C61.3733 5.63756 60.9995 5.06695 60.5283 4.58639C60.0571 4.10584 59.4978 3.72478 58.8822 3.46497C58.2667 3.20517 57.607 3.07173 56.9409 3.07227" fill="#F6F3EC"/>
</svg>
