<svg width="69" height="70" viewBox="0 0 69 70" fill="none" xmlns="http://www.w3.org/2000/svg">
<g clip-path="url(#clip0_548_2042)">
<path d="M6.9355 0.335938H6.54688V8.67338L10.1817 15.1887L35.4424 59.5684H35.7396L59.0117 16.2382C60.0404 14.3902 60.7719 13.4547 61.2977 13.4547C61.4502 13.4698 61.5928 13.5371 61.7012 13.6453C61.8095 13.7534 61.877 13.8957 61.8921 14.0479C62.0116 14.8022 62.0575 15.5663 62.0293 16.3295V57.8761C62.0617 60.162 61.9549 62.4477 61.7092 64.7207C61.6531 65.9585 61.1209 67.1271 60.2233 67.9833V68.2114H68.6588V68.0289C67.7612 67.1728 67.229 66.0042 67.1729 64.7663C66.9055 62.495 66.791 60.2083 66.83 57.9217V0.335938H66.4642L39.2017 51.4274C38.4244 52.9789 37.8485 53.8878 37.1855 53.8878C36.5226 53.8878 36.251 53.0893 35.3594 51.6063L6.9355 0.335938Z" fill="#494646"/>
<path fill-rule="evenodd" clip-rule="evenodd" d="M6.21875 0H7.14131L35.6583 51.4383C35.8511 51.7592 36.0154 52.0486 36.1591 52.3017C36.1825 52.3429 36.2053 52.3831 36.2276 52.4224C36.3898 52.7075 36.5215 52.9346 36.6438 53.1141C36.8922 53.4788 37.0381 53.5519 37.1934 53.5519C37.3593 53.5519 37.5817 53.4384 37.8923 53.0346C38.1945 52.6418 38.5203 52.0531 38.9091 51.277L38.9111 51.2731L66.2705 0H67.1738V57.9247V57.9275C67.135 60.1991 67.2488 62.4707 67.5144 64.7271L67.5158 64.7391L67.5164 64.7511C67.5686 65.9024 68.0636 66.9894 68.8986 67.7858L69.0027 67.8851V68.5475H59.8951V67.8395L59.9992 67.7402C60.8342 66.9437 61.3292 65.8568 61.3814 64.7055L61.3819 64.6951L61.383 64.6846C61.6272 62.4253 61.7334 60.1532 61.7011 57.8809V57.8785V16.3233L61.7013 16.3171C61.7288 15.5757 61.6842 14.8334 61.5681 14.1006L61.5666 14.0909L61.5656 14.0812C61.5582 14.0065 61.525 13.9365 61.4716 13.8832C61.4228 13.8345 61.3598 13.8025 61.2917 13.7917C61.2544 13.7958 61.1829 13.8178 61.0702 13.9006C60.9437 13.9936 60.7914 14.1442 60.6121 14.3652C60.254 14.8066 59.8256 15.4812 59.3142 16.3997L59.3131 16.4017L35.9484 59.9045H35.2549L9.89613 15.3525L6.21875 8.76084V0ZM6.89078 0.934121V8.58606L10.4816 15.0225L10.483 15.0251L35.5947 59.1428L58.7235 16.0793L58.7247 16.077L58.7259 16.0748C59.2428 15.1463 59.6942 14.4299 60.0902 13.9418C60.2881 13.6979 60.4816 13.4993 60.6722 13.3591C60.8607 13.2206 61.0743 13.1188 61.3056 13.1188H61.3222L61.3386 13.1204C61.5683 13.1431 61.783 13.2445 61.9464 13.4075C62.1072 13.568 62.2084 13.7785 62.2332 14.0042C62.3547 14.775 62.4016 15.5558 62.3731 16.3357V57.8739C62.4056 60.1692 62.2985 62.4643 62.0522 64.7466C61.9973 65.905 61.5527 67.006 60.798 67.8755H68.0607C67.33 67.0137 66.8999 65.9315 66.8456 64.7939C66.5776 62.5125 66.4628 60.2157 66.5018 57.919V0.994008L39.5081 51.5818C39.1204 52.3554 38.7702 52.9956 38.4249 53.4444C38.0875 53.883 37.6905 54.2239 37.1934 54.2239C36.6857 54.2239 36.3644 53.8978 36.0883 53.4924C35.9484 53.2869 35.8037 53.0364 35.6434 52.7546C35.6207 52.7147 35.5977 52.6741 35.5741 52.6326C35.4296 52.3781 35.2688 52.0946 35.0793 51.7795L35.0763 51.7745L6.89078 0.934121Z" fill="#494646"/>
<path d="M14.6731 61.9595C14.6731 66.0114 11.3884 69.296 7.33654 69.296C3.28468 69.296 0 66.0114 0 61.9595C0 57.9077 3.28468 54.623 7.33654 54.623C11.3884 54.623 14.6731 57.9077 14.6731 61.9595Z" fill="#494646"/>
</g>
<defs>
<clipPath id="clip0_548_2042">
<rect width="69" height="70" fill="white"/>
</clipPath>
</defs>
</svg>
