<svg width="69" height="70" viewBox="0 0 69 70" fill="none" xmlns="http://www.w3.org/2000/svg">
<g clip-path="url(#clip0_567_8178)">
<path d="M6.93941 0.335938H6.55078V8.67338L10.1856 15.1887L35.4463 59.5684H35.7435L59.0156 16.2382C60.0443 14.3902 60.7758 13.4547 61.3016 13.4547C61.4541 13.4698 61.5967 13.5371 61.7051 13.6453C61.8134 13.7534 61.8809 13.8957 61.896 14.0479C62.0155 14.8022 62.0614 15.5663 62.0332 16.3295V57.8761C62.0656 60.162 61.9588 62.4477 61.7131 64.7207C61.657 65.9585 61.1248 67.1271 60.2272 67.9833V68.2114H68.6627V68.0289C67.7651 67.1728 67.2329 66.0042 67.1768 64.7663C66.9094 62.495 66.7949 60.2083 66.8339 57.9217V0.335938H66.4681L39.2056 51.4274C38.4283 52.9789 37.8524 53.8878 37.1894 53.8878C36.5265 53.8878 36.2549 53.0893 35.3633 51.6063L6.93941 0.335938Z" fill="black"/>
<path fill-rule="evenodd" clip-rule="evenodd" d="M6.21484 0H7.1374L35.6544 51.4383C35.8472 51.7592 36.0115 52.0486 36.1552 52.3017C36.1786 52.3429 36.2014 52.3831 36.2237 52.4224C36.3859 52.7075 36.5176 52.9346 36.6399 53.1141C36.8883 53.4788 37.0342 53.5519 37.1895 53.5519C37.3554 53.5519 37.5778 53.4384 37.8884 53.0346C38.1906 52.6418 38.5164 52.0531 38.9052 51.277L38.9072 51.2731L66.2666 0H67.1699V57.9247V57.9275C67.1311 60.1991 67.2449 62.4707 67.5105 64.7271L67.5119 64.7391L67.5125 64.7511C67.5647 65.9024 68.0597 66.9894 68.8947 67.7858L68.9988 67.8851V68.5475H59.8912V67.8395L59.9953 67.7402C60.8303 66.9437 61.3253 65.8568 61.3775 64.7055L61.378 64.6951L61.3791 64.6846C61.6233 62.4253 61.7295 60.1532 61.6972 57.8809V57.8785V16.3233L61.6974 16.3171C61.7249 15.5757 61.6803 14.8334 61.5642 14.1006L61.5627 14.0909L61.5617 14.0812C61.5543 14.0065 61.5211 13.9365 61.4677 13.8832C61.4189 13.8345 61.3559 13.8025 61.2878 13.7917C61.2505 13.7958 61.179 13.8178 61.0663 13.9006C60.9398 13.9936 60.7875 14.1442 60.6082 14.3652C60.2501 14.8066 59.8217 15.4812 59.3103 16.3997L59.3092 16.4017L35.9445 59.9045H35.251L9.89222 15.3525L6.21484 8.76084V0ZM6.88687 0.934121V8.58606L10.4777 15.0225L10.4791 15.0251L35.5908 59.1428L58.7196 16.0793L58.7208 16.077L58.722 16.0748C59.2389 15.1463 59.6903 14.4299 60.0863 13.9418C60.2842 13.6979 60.4777 13.4993 60.6683 13.3591C60.8568 13.2206 61.0704 13.1188 61.3017 13.1188H61.3183L61.3347 13.1204C61.5644 13.1431 61.7791 13.2445 61.9425 13.4075C62.1033 13.568 62.2045 13.7785 62.2293 14.0042C62.3508 14.775 62.3977 15.5558 62.3692 16.3357V57.8739C62.4017 60.1692 62.2946 62.4643 62.0483 64.7466C61.9934 65.905 61.5488 67.006 60.7941 67.8755H68.0568C67.3261 67.0137 66.896 65.9315 66.8417 64.7939C66.5737 62.5125 66.4589 60.2157 66.4979 57.919V0.994008L39.5042 51.5818C39.1165 52.3554 38.7663 52.9956 38.421 53.4444C38.0836 53.883 37.6866 54.2239 37.1895 54.2239C36.6818 54.2239 36.3605 53.8978 36.0844 53.4924C35.9445 53.2869 35.7998 53.0364 35.6395 52.7546C35.6168 52.7147 35.5938 52.6741 35.5702 52.6326C35.4257 52.3781 35.2649 52.0946 35.0754 51.7795L35.0724 51.7745L6.88687 0.934121Z" fill="black"/>
<path d="M14.6731 61.9595C14.6731 66.0114 11.3884 69.296 7.33654 69.296C3.28468 69.296 0 66.0114 0 61.9595C0 57.9077 3.28468 54.623 7.33654 54.623C11.3884 54.623 14.6731 57.9077 14.6731 61.9595Z" fill="black"/>
</g>
<defs>
<clipPath id="clip0_567_8178">
<rect width="69" height="70" fill="white"/>
</clipPath>
</defs>
</svg>
