<svg width="79" height="78" viewBox="0 0 79 78" fill="none" xmlns="http://www.w3.org/2000/svg">
<path fill-rule="evenodd" clip-rule="evenodd" d="M65.8684 67.9354C73.7607 60.7987 78.7195 50.4785 78.7195 39C78.7195 27.4882 73.7318 17.1414 65.7996 10.0025C62.2243 31.6893 44.4258 48.5809 22.3042 50.7773V73.9053C27.5461 76.5256 33.4606 78 39.7195 78C45.7743 78 51.5069 76.6202 56.6199 74.1579C56.327 65.7368 53.381 57.9902 48.5919 51.728C51.3647 49.9648 53.9484 47.9309 56.306 45.6635C61.2057 52.0332 64.5763 59.6403 65.8684 67.9354ZM12.4929 66.9234C5.22956 59.8402 0.719482 49.9468 0.719482 39C0.719482 28.0532 5.22956 18.1598 12.4929 11.0766V40.9045V50.7773V66.9234ZM22.3042 4.09474V40.9045C41.0572 38.5661 55.7013 22.9967 56.6001 3.83259C51.4921 1.37624 45.7665 0 39.7195 0C33.4606 0 27.5461 1.47437 22.3042 4.09474Z" fill="black"/>
</svg>
