<svg width="354" height="27" viewBox="0 0 354 27" fill="none" xmlns="http://www.w3.org/2000/svg">
<g clip-path="url(#clip0_915_3443)">
<mask id="mask0_915_3443" style="mask-type:luminance" maskUnits="userSpaceOnUse" x="0" y="0" width="354" height="27">
<path d="M353.348 0H0V27H353.348V0Z" fill="white"/>
</mask>
<g mask="url(#mask0_915_3443)">
<path d="M24.9531 25.9371C25.1982 25.7923 25.4118 25.594 25.5799 25.3551C25.851 24.914 26.0905 24.4516 26.2961 23.9719C26.6185 23.2851 27.0214 22.3597 27.5049 21.2055L32.6712 8.85193C32.7974 8.55169 32.8644 8.227 32.8681 7.89798C32.8759 7.73845 32.8358 7.58035 32.7538 7.4466C32.6717 7.31286 32.5518 7.21037 32.4115 7.15395C31.9076 6.9881 31.3804 6.91708 30.8536 6.94408H29.3941V6.5625H34.0679L40.4877 22.6269C41.2666 24.5348 41.8576 25.6222 42.2785 25.9085V25.9752H38.5716V25.9085C39.2521 25.7462 39.6013 25.4505 39.6013 25.0212C39.5998 24.8035 39.5539 24.5887 39.467 24.3917L38.1061 21.0624C37.9743 20.6499 37.739 20.2836 37.4256 20.0035C37.1021 19.797 36.7274 19.7005 36.3511 19.7269H29.4568C29.1665 19.7094 28.8783 19.7895 28.6331 19.9558C28.3854 20.1804 28.192 20.465 28.069 20.7858L26.4483 24.6015C26.3809 24.7569 26.3472 24.9264 26.3499 25.0976C26.3499 25.4982 26.6006 25.7654 27.1109 25.9085V25.9752H24.9531V25.9371ZM36.3153 19.3739C36.8704 19.3739 37.1391 19.2213 37.1391 18.9065C37.141 18.7385 37.1073 18.5722 37.0405 18.42L33.4591 9.45295C33.3517 9.16675 33.2352 9.02365 33.1009 9.02365C32.9667 9.02365 32.7875 9.21442 32.6353 9.59605L29.0628 18.42C28.983 18.5688 28.937 18.7354 28.9285 18.9065C28.9285 19.2213 29.2061 19.3739 29.7612 19.3739H36.3153Z" fill="#494646" stroke="#494646" stroke-width="0.343172" stroke-miterlimit="10"/>
<path d="M49.566 25.9371C49.7048 25.8245 49.8186 25.6806 49.8991 25.5156C49.9796 25.3507 50.0249 25.1689 50.0315 24.9831C50.1067 24.3216 50.1396 23.6556 50.13 22.9894V8.25099C50.1672 7.88803 50.0745 7.52354 49.8704 7.23026C49.5941 7.0071 49.2482 6.90474 48.9034 6.94408H46.6829C45.7732 6.91189 44.865 7.04414 43.9968 7.33519C43.2647 7.62699 42.638 8.15788 42.206 8.85193L41.7046 9.59605H41.5703L42.5821 6.5625H60.3014L59.0747 9.59605H58.9405V9.06184C58.9405 8.2128 58.7882 7.65 58.3406 7.37336C57.5463 7.01736 56.6834 6.87014 55.8246 6.94408H53.0131C52.6711 6.90428 52.3279 7.00681 52.0551 7.23026C51.8436 7.51995 51.7472 7.88641 51.7865 8.25099V23.0084C51.7769 23.6746 51.8098 24.3407 51.885 25.0022C51.8935 25.1875 51.9395 25.3688 52.0198 25.5334C52.1002 25.698 52.213 25.8423 52.3505 25.9561V26.0229H49.566V25.9371Z" fill="#494646" stroke="#494646" stroke-width="0.343172" stroke-miterlimit="10"/>
<path d="M59.6406 25.9371C59.8857 25.7923 60.0993 25.594 60.2674 25.3551C60.5386 24.914 60.7781 24.4516 60.9836 23.9719C61.306 23.285 61.7089 22.3597 62.1924 21.2055L67.3587 8.85193C67.4849 8.55169 67.5519 8.227 67.5556 7.89798C67.5634 7.73845 67.5233 7.58035 67.4413 7.4466C67.3592 7.31285 67.2393 7.21037 67.099 7.15395C66.5951 6.9881 66.0679 6.91708 65.5411 6.94408H64.0727V6.5625H68.7465L75.1753 22.6555C75.9544 24.5634 76.5452 25.6509 76.9659 25.9371V26.0038H73.2594V25.9371C73.9393 25.7781 74.2796 25.4823 74.2796 25.0498C74.2767 24.8333 74.2347 24.6194 74.1543 24.4203L72.8293 21.0624C72.6895 20.6494 72.4484 20.2838 72.131 20.0035C71.8072 19.7981 71.4327 19.7017 71.0565 19.7269H64.1443C63.854 19.7094 63.5658 19.7895 63.3206 19.9558C63.0729 20.1804 62.8795 20.465 62.7565 20.7858L61.1358 24.6015C61.0655 24.7562 61.0288 24.9257 61.0285 25.0976C61.0285 25.4982 61.2881 25.7653 61.7984 25.9084V25.9752H59.6406V25.9371ZM71.0386 19.3739C71.5848 19.3739 71.8623 19.2213 71.8623 18.9065C71.8643 18.7385 71.8306 18.5722 71.7639 18.42L68.1824 9.45295C68.0749 9.16675 67.9496 9.02365 67.8242 9.02365C67.6989 9.02365 67.5109 9.21442 67.3587 9.59605L63.7145 18.42C63.6347 18.5688 63.5887 18.7354 63.5802 18.9065C63.5802 19.2213 63.8578 19.3739 64.4129 19.3739H71.0386Z" fill="#494646" stroke="#494646" stroke-width="0.343172" stroke-miterlimit="10"/>
<path d="M78.625 25.9371C78.9566 25.6391 79.2274 25.2723 79.4222 24.8591C79.6908 24.3535 80.2187 23.142 81.0159 21.2436L86.146 8.84244C86.2705 8.54143 86.3371 8.2172 86.3429 7.88849C86.3567 7.72426 86.3205 7.55978 86.2401 7.41905C86.159 7.27832 86.0388 7.16871 85.8954 7.10625C85.3886 6.93792 84.8585 6.86686 84.3285 6.89638H82.8782V6.5625H87.5521L93.8197 22.6269C94.5713 24.5348 95.1715 25.6032 95.6103 25.9084V25.9752H91.8314V25.9084C92.512 25.7462 92.8523 25.4601 92.8523 25.0594C92.8313 24.7667 92.7647 24.4799 92.6554 24.2104L86.9069 9.30985C86.8179 9.11908 86.7194 9.02365 86.6115 9.02365C86.5652 9.02681 86.5203 9.04363 86.4826 9.07225C86.445 9.10095 86.4153 9.14021 86.3965 9.1858L86.1822 9.62467L79.9146 24.6969C79.8552 24.8416 79.8212 24.9969 79.8161 25.1548C79.8161 25.5841 80.0847 25.8416 80.6126 25.9371V26.0038H78.625V25.9371Z" fill="#494646" stroke="#494646" stroke-width="0.343172" stroke-miterlimit="10"/>
<path d="M100.656 25.9371C100.794 25.824 100.906 25.6798 100.985 25.5148C101.064 25.3499 101.108 25.1682 101.113 24.9831C101.193 24.3221 101.225 23.6556 101.212 22.9894V9.59605C101.225 8.92977 101.193 8.26325 101.113 7.6023C101.109 7.41691 101.066 7.23482 100.987 7.06964C100.908 6.90445 100.795 6.76043 100.656 6.64836V6.5625H103.468V6.63882C103.329 6.7509 103.216 6.89491 103.137 7.06009C103.058 7.22528 103.015 7.40737 103.011 7.59276C102.931 8.25376 102.898 8.9202 102.912 9.58648V13.2401C102.872 13.6392 102.964 14.0409 103.172 14.3753C103.303 14.4947 103.456 14.5842 103.621 14.6383C103.786 14.6925 103.959 14.7101 104.13 14.6901H106.45C108.426 14.5813 110.388 15.1171 112.072 16.2259C112.708 16.6771 113.228 17.2885 113.589 18.0058C113.949 18.723 114.137 19.5239 114.137 20.3374C114.137 21.1509 113.949 21.9518 113.589 22.6691C113.228 23.3863 112.708 23.9976 112.072 24.4489C110.388 25.5578 108.426 26.0934 106.45 25.9847H100.692L100.656 25.9371ZM106.028 25.6509C110.207 25.6509 112.296 23.8861 112.296 20.3565C112.296 16.8269 110.207 15.0621 106.028 15.0621H104.238C103.865 15.0206 103.49 15.122 103.181 15.3483C103.069 15.4876 102.984 15.6501 102.933 15.8258C102.883 16.0015 102.866 16.1864 102.886 16.369V24.2009C102.845 24.5999 102.937 25.0016 103.146 25.336C103.277 25.4555 103.429 25.5449 103.594 25.5991C103.758 25.6533 103.932 25.6708 104.104 25.6509H106.028Z" fill="#494646" stroke="#494646" stroke-width="0.343172" stroke-miterlimit="10"/>
<path d="M116.898 25.936C117.482 25.8752 118.046 25.6834 118.555 25.3732C119.218 24.8901 119.802 24.2939 120.283 23.6084L124.76 17.7799C124.972 17.5608 125.139 17.2979 125.252 17.0071C125.252 16.9308 125.198 16.8831 125.091 16.845C124.918 16.7958 124.742 16.767 124.563 16.7591C123.686 16.6594 122.825 16.438 122.002 16.1009C121.13 15.734 120.344 15.1674 119.701 14.441C119.066 13.7143 118.723 12.7528 118.743 11.7605C118.722 10.9805 118.907 10.21 119.276 9.53583C119.644 8.8616 120.182 8.31049 120.829 7.94468C122.433 6.98094 124.254 6.50263 126.094 6.56149H131.565V6.6378C131.425 6.74939 131.31 6.89308 131.23 7.05822C131.149 7.22335 131.105 7.4057 131.099 7.59174C131.024 8.25317 130.99 8.9193 131 9.58551V23.0074C130.991 23.6736 131.024 24.3397 131.099 25.0011C131.105 25.1869 131.151 25.3688 131.231 25.5337C131.312 25.6986 131.426 25.8426 131.565 25.9551V26.0219H127.786V25.9551C128.046 25.9175 128.293 25.816 128.509 25.6587C128.725 25.5014 128.904 25.2926 129.031 25.0489C129.29 24.2264 129.397 23.3581 129.344 22.4923V18.1328C129.365 17.9501 129.349 17.7649 129.298 17.5891C129.247 17.4133 129.162 17.2507 129.048 17.112C128.736 16.8874 128.359 16.7862 127.983 16.8259H126.954C126.646 16.8201 126.34 16.8851 126.058 17.0167C125.762 17.1859 125.505 17.4239 125.306 17.713L120.077 24.486C119.88 24.7436 119.745 24.9344 119.674 25.0489C119.614 25.1559 119.58 25.2772 119.575 25.4018C119.578 25.4883 119.605 25.5718 119.654 25.6416C119.701 25.7114 119.768 25.7641 119.844 25.7929C120.163 25.9117 120.501 25.9604 120.838 25.936V26.0028H116.898V25.936ZM128.1 16.4729C128.271 16.4935 128.445 16.4762 128.61 16.422C128.774 16.3678 128.927 16.278 129.058 16.1582C129.269 15.8249 129.364 15.4231 129.326 15.0229V8.24993C129.347 8.06726 129.331 7.88204 129.28 7.70624C129.229 7.53043 129.144 7.36794 129.031 7.22924C128.717 7.00456 128.341 6.90334 127.965 6.94306H126.308C124.771 6.83361 123.243 7.27334 121.966 8.19269C121.475 8.61204 121.084 9.14988 120.825 9.76186C120.567 10.3739 120.449 11.0425 120.48 11.7127C120.449 12.3816 120.567 13.0489 120.825 13.6593C121.084 14.2699 121.475 14.8059 121.966 15.2233C123.243 16.1427 124.771 16.5824 126.308 16.4729H128.1Z" fill="#494646" stroke="#494646" stroke-width="0.343172" stroke-miterlimit="10"/>
<path d="M185.572 9.27341C185.582 8.6072 185.549 7.94107 185.473 7.27964C185.466 7.09401 185.421 6.91236 185.34 6.74753C185.26 6.58269 185.146 6.43868 185.008 6.3257V6.26846H187.793V6.34478C187.651 6.45488 187.536 6.59824 187.455 6.7637C187.374 6.92917 187.331 7.11226 187.327 7.29872C187.247 7.95966 187.214 8.62618 187.229 9.29246V22.3996C187.214 22.5359 187.214 22.6735 187.229 22.8098C187.246 22.8404 187.271 22.8648 187.302 22.8801C187.331 22.8954 187.365 22.9008 187.399 22.8957C187.506 22.8957 187.694 22.7144 187.963 22.3615L200.516 6.05859H200.65V22.6858C200.641 23.352 200.673 24.0181 200.748 24.6795C200.758 24.8646 200.805 25.0454 200.885 25.2099C200.965 25.3744 201.077 25.5187 201.214 25.6335V25.643H198.429C198.568 25.5296 198.68 25.3855 198.761 25.2207C198.841 25.056 198.887 24.8745 198.895 24.689C198.97 24.0276 199.003 23.3615 198.993 22.6953V9.73125C198.993 9.39737 198.913 9.23522 198.761 9.23522C198.609 9.23522 198.376 9.39737 198.134 9.73125L185.697 25.891H185.572V9.27341Z" fill="#494646" stroke="#494646" stroke-width="0.343172" stroke-miterlimit="10"/>
<path d="M212.691 25.6402C212.828 25.5262 212.94 25.3818 213.019 25.2171C213.097 25.0523 213.142 24.8711 213.147 24.6862C213.227 24.0252 213.26 23.3588 213.246 22.6925V7.92548C213.284 7.56254 213.191 7.19804 212.987 6.90476C212.71 6.6816 212.364 6.57924 212.019 6.61858H209.808C208.899 6.58639 207.99 6.71864 207.122 7.00969C206.391 7.30432 205.766 7.8346 205.331 8.5265L204.83 9.27054H204.695L205.698 6.26562H223.381L222.155 9.27054H222.056V8.73633C222.117 8.42274 222.094 8.0972 221.99 7.79696C221.886 7.49672 221.704 7.23383 221.466 7.0383C220.666 6.69075 219.802 6.54703 218.941 6.61858H216.094C215.751 6.57878 215.408 6.68131 215.135 6.90476C214.924 7.19445 214.827 7.5609 214.866 7.92548V22.6829C214.855 23.3495 214.89 24.016 214.974 24.6767C214.98 24.8615 215.024 25.0427 215.103 25.2075C215.182 25.3723 215.294 25.5167 215.431 25.6306V25.6402H212.655H212.691Z" fill="#494646" stroke="#494646" stroke-width="0.343172" stroke-miterlimit="10"/>
<path d="M237.665 24.9083C236.341 24.1731 235.204 23.1059 234.353 21.7985C233.489 20.467 232.953 18.9251 232.795 17.315C232.799 16.9766 232.708 16.6445 232.535 16.361C232.429 16.2713 232.306 16.2049 232.176 16.1656C232.046 16.1263 231.909 16.115 231.774 16.1321H230.476C230.103 16.0922 229.729 16.1935 229.42 16.4183C229.306 16.557 229.221 16.7194 229.17 16.8953C229.119 17.0711 229.103 17.2563 229.124 17.439V22.6857C229.11 23.3551 229.142 24.0248 229.223 24.6889C229.228 24.875 229.273 25.0573 229.353 25.2224C229.433 25.3876 229.548 25.5312 229.688 25.6429H226.903C227.04 25.5282 227.152 25.3837 227.233 25.2193C227.312 25.0548 227.36 24.874 227.369 24.6889C227.433 24.0235 227.454 23.3541 227.432 22.6857V9.27323C227.441 8.60703 227.409 7.9409 227.333 7.27951C227.326 7.09389 227.281 6.91223 227.2 6.7474C227.119 6.58256 227.006 6.43856 226.867 6.32557V6.26833H229.652V6.34465C229.511 6.45475 229.396 6.59811 229.315 6.76358C229.233 6.92904 229.19 7.11213 229.186 7.29859C229.107 7.95957 229.073 8.62608 229.088 9.29229V14.3673C229.047 14.7664 229.139 15.168 229.348 15.5024C229.48 15.6226 229.635 15.7126 229.8 15.7667C229.967 15.8208 230.142 15.8381 230.315 15.8173H231.604C231.901 15.847 232.199 15.766 232.445 15.5883C232.638 15.3745 232.75 15.0926 232.759 14.7966C232.911 13.1629 233.424 11.5907 234.254 10.2081C235.048 8.88366 236.149 7.7995 237.451 7.06011C238.814 6.29969 240.335 5.91284 241.874 5.93445C243.525 5.91552 245.153 6.35964 246.592 7.22227C248.001 8.06618 249.17 9.29861 249.977 10.79C250.807 12.3304 251.233 14.0796 251.213 15.8554C251.239 17.6843 250.835 19.4911 250.04 21.1117C249.293 22.5994 248.174 23.8376 246.807 24.6889C245.37 25.5777 243.732 26.0297 242.071 25.9958C240.541 26.0225 239.029 25.6491 237.665 24.9083ZM246.118 24.4981C247.21 23.6648 248.06 22.5211 248.571 21.1975C249.18 19.6585 249.485 18.0024 249.466 16.3324C249.497 14.5507 249.173 12.7823 248.518 11.1429C247.949 9.67191 246.986 8.41139 245.751 7.51799C244.516 6.64629 243.06 6.19701 241.578 6.23018C240.254 6.19994 238.954 6.61372 237.863 7.41306C236.774 8.2477 235.927 9.39134 235.418 10.7137C234.804 12.2543 234.5 13.9148 234.523 15.5883C234.5 17.3836 234.829 19.1643 235.49 20.816C236.058 22.2637 237.006 23.5059 238.221 24.3932C239.462 25.2533 240.921 25.6893 242.402 25.6429C243.723 25.6843 245.022 25.284 246.118 24.4981Z" fill="#494646" stroke="#494646" stroke-width="0.343172" stroke-miterlimit="10"/>
<path d="M257.047 25.6421C257.183 25.5273 257.295 25.383 257.376 25.2185C257.456 25.0541 257.502 24.8732 257.512 24.6882C257.587 24.0268 257.62 23.3606 257.611 22.6944V9.27249C257.62 8.60629 257.588 7.94016 257.512 7.27875C257.505 7.09312 257.46 6.91147 257.379 6.74664C257.298 6.5818 257.185 6.4378 257.047 6.32481V6.26758H259.831V6.34389C259.69 6.45399 259.575 6.59735 259.494 6.7628C259.413 6.92827 259.369 7.11137 259.365 7.29783C259.286 7.95883 259.252 8.62526 259.267 9.29155V24.3066C259.253 24.4493 259.267 24.5935 259.309 24.7299C259.35 24.8664 259.418 24.9919 259.509 25.0984C259.759 25.2761 260.06 25.3569 260.36 25.3273H267.451C267.748 25.3562 268.045 25.2754 268.292 25.0984C268.384 24.9924 268.453 24.8672 268.497 24.7308C268.539 24.5944 268.555 24.4499 268.543 24.3066V9.27249C268.553 8.60629 268.52 7.94016 268.445 7.27875C268.437 7.09312 268.392 6.91147 268.311 6.74664C268.231 6.5818 268.117 6.4378 267.979 6.32481V6.26758H270.764V6.34389C270.623 6.45399 270.507 6.59735 270.426 6.7628C270.345 6.92827 270.302 7.11137 270.298 7.29783C270.218 7.95883 270.185 8.62526 270.2 9.29155V24.1635C270.171 24.4799 270.247 24.7968 270.415 25.0602C270.511 25.1619 270.628 25.2388 270.757 25.285C270.886 25.3313 271.023 25.3457 271.158 25.3273H278.508C278.645 25.3473 278.784 25.3336 278.914 25.2873C279.044 25.241 279.163 25.1632 279.261 25.0602C279.427 24.7968 279.503 24.4799 279.476 24.1635V9.27249C279.479 8.60582 279.44 7.9397 279.359 7.27875C279.352 7.09312 279.306 6.91147 279.226 6.74664C279.146 6.5818 279.032 6.4378 278.894 6.32481V6.26758H281.678V6.34389C281.536 6.45399 281.421 6.59735 281.34 6.7628C281.26 6.92827 281.216 7.11137 281.213 7.29783C281.145 7.95343 281.124 8.61354 281.15 9.27249V22.6849C281.136 23.3511 281.169 24.0176 281.248 24.6786C281.254 24.8647 281.298 25.0471 281.379 25.2121C281.46 25.3773 281.574 25.521 281.714 25.6326V25.6421H257.047Z" fill="#494646" stroke="#494646" stroke-width="0.343172" stroke-miterlimit="10"/>
<path d="M290.212 9.27341C290.226 8.60712 290.193 7.94061 290.113 7.27964C290.109 7.09425 290.066 6.91216 289.987 6.74698C289.908 6.58178 289.795 6.43777 289.656 6.3257V6.26846H292.432V6.34478C292.293 6.45685 292.18 6.60087 292.101 6.76606C292.022 6.93124 291.979 7.11333 291.975 7.29872C291.904 7.95403 291.881 8.61414 291.904 9.27341V22.3996C291.888 22.5358 291.888 22.6736 291.904 22.8098C291.921 22.8404 291.946 22.8648 291.976 22.8801C292.007 22.8954 292.041 22.9008 292.074 22.8957C292.181 22.8957 292.369 22.7144 292.638 22.3615L305.173 6.05859H305.334V22.6858C305.324 23.352 305.358 24.0181 305.432 24.6795C305.44 24.865 305.486 25.0464 305.566 25.2112C305.647 25.3759 305.76 25.52 305.898 25.6335V25.643H303.114C303.25 25.5283 303.362 25.3838 303.443 25.2194C303.523 25.0549 303.569 24.8742 303.579 24.689C303.654 24.0276 303.687 23.3615 303.678 22.6953V9.73125C303.678 9.39737 303.597 9.23522 303.445 9.23522C303.293 9.23522 303.06 9.39737 302.818 9.73125L290.346 25.891H290.212V9.27341Z" fill="#494646" stroke="#494646" stroke-width="0.343172" stroke-miterlimit="10"/>
<path d="M313.797 25.6402C313.932 25.5242 314.044 25.3795 314.124 25.2153C314.205 25.0511 314.252 24.8709 314.263 24.6862C314.338 24.0183 314.37 23.3459 314.362 22.6734V9.31821C314.377 8.63974 314.35 7.96096 314.281 7.28633C314.272 7.10097 314.226 6.91977 314.146 6.75512C314.066 6.59047 313.953 6.44627 313.815 6.3324V6.26562H316.6V6.34193C316.459 6.45304 316.345 6.59662 316.264 6.76186C316.183 6.92711 316.139 7.1097 316.134 7.29588C316.055 7.96335 316.022 8.63612 316.036 9.30873V14.1929C316.001 14.5885 316.092 14.9851 316.296 15.3185C316.432 15.44 316.591 15.5305 316.762 15.5846C316.933 15.6387 317.112 15.6553 317.289 15.6333H326.699C326.878 15.6606 327.06 15.6484 327.234 15.5975C327.408 15.5467 327.571 15.4582 327.711 15.3376C327.922 15.0077 328.017 14.6091 327.98 14.2119V9.29916C327.989 8.62663 327.955 7.95425 327.882 7.28633C327.873 7.10097 327.827 6.91977 327.746 6.75512C327.666 6.59047 327.554 6.44627 327.416 6.3324V6.26562H330.2V6.34193C330.06 6.45304 329.945 6.59662 329.865 6.76186C329.784 6.92711 329.74 7.1097 329.734 7.29588C329.656 7.96335 329.623 8.63612 329.636 9.30873V22.6639C329.622 23.3365 329.656 24.0092 329.734 24.6767C329.742 24.8623 329.787 25.0439 329.868 25.2088C329.949 25.3736 330.062 25.5176 330.2 25.6306V25.6402H327.416C327.551 25.5242 327.662 25.3795 327.743 25.2153C327.823 25.0511 327.87 24.8709 327.882 24.6862C327.956 24.0183 327.989 23.3459 327.98 22.6734V17.3504C328.015 16.9802 327.92 16.6092 327.711 16.3106C327.43 16.0735 327.073 15.9638 326.717 16.0053H317.271C316.915 15.9638 316.558 16.0735 316.278 16.3106C316.077 16.6129 315.984 16.9819 316.018 17.3504V22.6448C316.004 23.3174 316.037 23.9902 316.116 24.6576C316.123 24.8432 316.169 25.0249 316.249 25.1897C316.33 25.3545 316.443 25.4985 316.582 25.6116V25.6402H313.797Z" fill="#494646" stroke="#494646" stroke-width="0.343172" stroke-miterlimit="10"/>
<path d="M335.297 25.6402C335.54 25.4925 335.753 25.2947 335.924 25.0582C336.195 24.6171 336.434 24.1547 336.64 23.675C336.962 22.9882 337.366 22.0629 337.849 20.9086L343.015 8.55512C343.141 8.2548 343.208 7.93011 343.212 7.60114C343.219 7.4404 343.178 7.28146 343.094 7.14757C343.01 7.01369 342.889 6.91187 342.747 6.85706C342.246 6.69097 341.722 6.61993 341.197 6.6472H339.738V6.26562H344.403L350.832 22.33C351.611 24.2379 352.202 25.3254 352.623 25.6116V25.6402H348.915C349.596 25.4685 349.936 25.1823 349.936 24.753C349.933 24.5364 349.891 24.3225 349.811 24.1234L348.486 20.7655C348.351 20.3547 348.116 19.9893 347.805 19.7067C347.479 19.4999 347.101 19.4035 346.722 19.43H339.801C339.51 19.4125 339.222 19.4926 338.977 19.659C338.729 19.879 338.535 20.1607 338.413 20.4793L336.792 24.2951C336.722 24.4498 336.686 24.6193 336.685 24.7911C336.685 25.1918 336.945 25.4589 337.455 25.602V25.6402H335.297ZM346.695 19.0675C347.241 19.0675 347.519 18.9149 347.519 18.6096C347.521 18.4416 347.487 18.2753 347.42 18.1231L343.839 9.15606C343.732 8.86986 343.606 8.72676 343.48 8.72676C343.355 8.72676 343.168 8.91761 343.015 9.29916L339.371 18.1231C339.291 18.2719 339.245 18.4385 339.237 18.6096C339.237 18.9149 339.515 19.0675 340.061 19.0675H346.695Z" fill="#494646" stroke="#494646" stroke-width="0.343172" stroke-miterlimit="10"/>
<path d="M3.33713 13.8317C3.6895 13.5532 4.12773 13.4271 4.56378 13.4787H13.5175V13.1258H4.56378C4.12815 13.1718 3.69177 13.0462 3.33713 12.7728C3.08047 12.3949 2.96262 11.93 3.00584 11.4659V5.07448C2.99662 4.23645 3.0355 3.3986 3.12224 2.56562C3.14196 2.11099 3.32844 1.68279 3.64155 1.37319V1.29688H0.722656V1.37319C0.878021 1.52568 1.00321 1.70972 1.09085 1.9145C1.1785 2.11927 1.22683 2.34066 1.23301 2.56562C1.33928 3.39714 1.39312 4.2353 1.39418 5.07448V22.2454C1.40824 23.0835 1.36936 23.9217 1.27778 24.7543C1.27229 24.9808 1.22429 25.2038 1.13665 25.4102C1.049 25.6167 0.923456 25.8023 0.767426 25.9562V26.023H3.64155V25.9562C3.32631 25.6443 3.13964 25.2123 3.12224 24.7543C3.03522 23.9213 2.99636 23.0834 3.00584 22.2454V15.1481C2.96037 14.6808 3.07833 14.212 3.33713 13.8317Z" fill="#494646" stroke="#494646" stroke-width="0.343172" stroke-miterlimit="10"/>
<path d="M18.6896 2.56562C18.7094 2.11099 18.8959 1.68279 19.2089 1.37319V1.29688H16.2901V1.37319C16.4454 1.52568 16.5706 1.70972 16.6583 1.9145C16.7459 2.11927 16.7942 2.34066 16.8005 2.56562C16.8918 3.3982 16.9306 4.23637 16.9168 5.07448V11.4659C16.973 11.9268 16.8643 12.3934 16.6124 12.7728C16.2578 13.0462 15.8214 13.1718 15.3858 13.1258H13.7383V13.4787H15.3589C15.7952 13.4231 16.2348 13.5497 16.5856 13.8316C16.8525 14.2078 16.9713 14.68 16.9168 15.1481V22.2359C16.9309 23.074 16.892 23.9122 16.8005 24.7447C16.795 24.9712 16.7469 25.1942 16.6593 25.4007C16.5717 25.6071 16.4461 25.7928 16.2901 25.9467V26.0135H19.2089V25.9467C18.8938 25.6348 18.7071 25.2027 18.6896 24.7447C18.6027 23.9118 18.5638 23.0739 18.5733 22.2359V5.06494C18.5644 4.23009 18.6033 3.39544 18.6896 2.56562Z" fill="#494646" stroke="#494646" stroke-width="0.343172" stroke-miterlimit="10"/>
<path d="M157.592 0.771484H157.457V3.87505L158.727 6.30034L167.553 22.8205H167.657L175.788 6.69101C176.148 6.00309 176.403 5.65488 176.586 5.65488C176.64 5.6605 176.69 5.68556 176.728 5.72582C176.765 5.76607 176.789 5.81904 176.794 5.87569C176.836 6.15648 176.852 6.4409 176.842 6.72498V22.1905C176.854 23.0414 176.816 23.8923 176.73 24.7384C176.711 25.1992 176.525 25.6342 176.211 25.9528V26.0378H179.158V25.9698C178.845 25.6511 178.659 25.2161 178.639 24.7553C178.546 23.9099 178.506 23.0587 178.52 22.2075V0.771484H178.391L168.866 19.79C168.595 20.3675 168.393 20.7059 168.162 20.7059C167.93 20.7059 167.835 20.4087 167.524 19.8566L157.592 0.771484Z" fill="#494646" stroke="#494646" stroke-width="0.34" stroke-miterlimit="10"/>
<path d="M157.727 26.4425C159.143 26.4425 160.291 25.2198 160.291 23.7115C160.291 22.2032 159.143 20.9805 157.727 20.9805C156.312 20.9805 155.164 22.2032 155.164 23.7115C155.164 25.2198 156.312 26.4425 157.727 26.4425Z" fill="#494646"/>
</g>
</g>
<defs>
<clipPath id="clip0_915_3443">
<rect width="353.348" height="27" fill="white"/>
</clipPath>
</defs>
</svg>
