<svg width="195" height="14" viewBox="0 0 195 14" fill="none" xmlns="http://www.w3.org/2000/svg">
<g clip-path="url(#clip0_548_2063)">
<mask id="mask0_548_2063" style="mask-type:luminance" maskUnits="userSpaceOnUse" x="0" y="0" width="195" height="14">
<path d="M195 0H0V14H195V0Z" fill="white"/>
</mask>
<g mask="url(#mask0_548_2063)">
<path d="M13.7656 13.4484C13.9008 13.3733 14.0187 13.2705 14.1115 13.1467C14.2612 12.9179 14.3933 12.6782 14.5068 12.4295C14.6847 12.0733 14.907 11.5935 15.1739 10.995L18.0249 4.58946C18.0946 4.43378 18.1316 4.26542 18.1336 4.09482C18.1379 4.0121 18.1158 3.93012 18.0705 3.86077C18.0252 3.79142 17.9591 3.73828 17.8816 3.70902C17.6035 3.62302 17.3126 3.5862 17.0219 3.6002H16.2164V3.40234H18.7957L22.3386 11.732C22.7685 12.7213 23.0946 13.2852 23.3269 13.4336V13.4682H21.2812V13.4336C21.6567 13.3495 21.8494 13.1961 21.8494 12.9735C21.8486 12.8607 21.8233 12.7493 21.7753 12.6471L21.0243 10.9208C20.9515 10.7069 20.8217 10.517 20.6487 10.3718C20.4702 10.2647 20.2634 10.2147 20.0558 10.2283H16.251C16.0908 10.2193 15.9318 10.2608 15.7965 10.347C15.6598 10.4635 15.553 10.6111 15.4851 10.7774L14.5908 12.7559C14.5535 12.8365 14.535 12.9244 14.5364 13.0131C14.5364 13.2209 14.6748 13.3594 14.9564 13.4336V13.4682H13.7656V13.4484ZM20.036 10.0453C20.3424 10.0453 20.4906 9.96618 20.4906 9.80294C20.4917 9.71582 20.4731 9.62957 20.4362 9.55065L18.4598 4.9011C18.4005 4.7527 18.3362 4.6785 18.2621 4.6785C18.188 4.6785 18.0891 4.77742 18.0052 4.9753L16.0336 9.55065C15.9896 9.62781 15.9642 9.71422 15.9595 9.80294C15.9595 9.96618 16.1127 10.0453 16.419 10.0453H20.036Z" fill="white" stroke="white" stroke-width="0.343172" stroke-miterlimit="10"/>
<path d="M27.35 13.4484C27.4267 13.3901 27.4894 13.3154 27.5339 13.2299C27.5783 13.1444 27.6033 13.0501 27.6069 12.9538C27.6484 12.6108 27.6666 12.2654 27.6613 11.92V4.27786C27.6818 4.08966 27.6306 3.90066 27.518 3.74859C27.3655 3.63288 27.1746 3.5798 26.9843 3.6002H25.7589C25.2569 3.58351 24.7557 3.65208 24.2766 3.803C23.8726 3.9543 23.5267 4.22958 23.2883 4.58946L23.0116 4.9753H22.9375L23.4959 3.40234H33.2745L32.5976 4.9753H32.5235V4.6983C32.5235 4.25806 32.4394 3.96623 32.1924 3.82279C31.7541 3.6382 31.2779 3.56186 30.8039 3.6002H29.2524C29.0636 3.57956 28.8742 3.63273 28.7237 3.74859C28.607 3.8988 28.5537 4.08882 28.5754 4.27786V11.9299C28.5702 12.2753 28.5883 12.6207 28.6298 12.9637C28.6345 13.0598 28.6599 13.1537 28.7042 13.2391C28.7486 13.3245 28.8108 13.3993 28.8867 13.4583V13.4929H27.35V13.4484Z" fill="white" stroke="white" stroke-width="0.343172" stroke-miterlimit="10"/>
<path d="M32.9141 13.4484C33.0493 13.3733 33.1672 13.2705 33.2599 13.1467C33.4096 12.9179 33.5418 12.6782 33.6552 12.4295C33.8331 12.0733 34.0555 11.5935 34.3223 10.995L37.1734 4.58946C37.243 4.43378 37.28 4.26542 37.2821 4.09482C37.2864 4.0121 37.2642 3.93012 37.219 3.86077C37.1737 3.79142 37.1075 3.73828 37.0301 3.70902C36.752 3.62302 36.461 3.5862 36.1703 3.6002H35.36V3.40234H37.9393L41.4871 11.7469C41.917 12.7361 42.2431 13.3 42.4753 13.4484V13.483H40.4298V13.4484C40.805 13.366 40.9928 13.2126 40.9928 12.9884C40.9912 12.8761 40.968 12.7652 40.9236 12.6619L40.1924 10.9208C40.1153 10.7067 39.9822 10.5171 39.807 10.3718C39.6283 10.2653 39.4217 10.2153 39.2141 10.2283H35.3995C35.2393 10.2193 35.0802 10.2608 34.9449 10.347C34.8082 10.4635 34.7015 10.6111 34.6336 10.7774L33.7392 12.7559C33.7004 12.8361 33.6802 12.924 33.68 13.0131C33.68 13.2209 33.8232 13.3594 34.1049 13.4336V13.4682H32.9141V13.4484ZM39.2042 10.0453C39.5056 10.0453 39.6588 9.96618 39.6588 9.80294C39.6599 9.71582 39.6413 9.62957 39.6044 9.55065L37.6279 4.9011C37.5686 4.7527 37.4995 4.6785 37.4303 4.6785C37.3611 4.6785 37.2574 4.77742 37.1734 4.9753L35.1623 9.55065C35.1182 9.62781 35.0929 9.71422 35.0882 9.80294C35.0882 9.96618 35.2414 10.0453 35.5477 10.0453H39.2042Z" fill="white" stroke="white" stroke-width="0.343172" stroke-miterlimit="10"/>
<path d="M43.3906 13.4484C43.5736 13.2939 43.7231 13.1037 43.8306 12.8895C43.9788 12.6273 44.2701 11.9991 44.7101 11.0148L47.5412 4.58454C47.6099 4.42846 47.6467 4.26034 47.6499 4.0899C47.6574 4.00474 47.6375 3.91945 47.5931 3.84648C47.5484 3.77351 47.482 3.71668 47.4029 3.68429C47.1232 3.59701 46.8307 3.56016 46.5382 3.57547H45.7378V3.40234H48.3172L51.776 11.732C52.1908 12.7213 52.5221 13.2753 52.7642 13.4336V13.4682H50.6787V13.4336C51.0544 13.3495 51.2422 13.2011 51.2422 12.9933C51.2306 12.8416 51.1938 12.6929 51.1335 12.5531L47.9611 4.8269C47.912 4.72798 47.8576 4.6785 47.7981 4.6785C47.7725 4.68014 47.7478 4.68886 47.727 4.7037C47.7062 4.71858 47.6898 4.73894 47.6794 4.76258L47.5611 4.99014L44.1023 12.8054C44.0695 12.8804 44.0507 12.9609 44.0479 13.0428C44.0479 13.2654 44.1962 13.3989 44.4875 13.4484V13.483H43.3906V13.4484Z" fill="white" stroke="white" stroke-width="0.343172" stroke-miterlimit="10"/>
<path d="M55.5469 13.4484C55.6228 13.3898 55.6847 13.315 55.7283 13.2295C55.7718 13.1439 55.7962 13.0497 55.799 12.9538C55.843 12.611 55.861 12.2655 55.8534 11.92V4.9753C55.861 4.62982 55.843 4.28422 55.799 3.9415C55.7966 3.84537 55.773 3.75096 55.7295 3.6653C55.6859 3.57965 55.6232 3.50498 55.5469 3.44686V3.40234H57.0985V3.44192C57.0218 3.50003 56.9594 3.5747 56.9159 3.66036C56.8723 3.74601 56.8483 3.84042 56.8463 3.93655C56.8024 4.2793 56.784 4.62486 56.792 4.97034V6.86482C56.7696 7.07174 56.8204 7.28002 56.9354 7.45342C57.0078 7.51534 57.0917 7.56174 57.1828 7.58982C57.2739 7.6179 57.3694 7.62702 57.4641 7.61666H58.744C59.8349 7.56026 60.9174 7.83806 61.8468 8.41302C62.1976 8.64698 62.485 8.96398 62.684 9.3359C62.8825 9.70778 62.9864 10.1231 62.9864 10.5449C62.9864 10.9667 62.8825 11.382 62.684 11.7539C62.485 12.1258 62.1976 12.4428 61.8468 12.6768C60.9174 13.2517 59.8349 13.5295 58.744 13.4731H55.5665L55.5469 13.4484ZM58.5114 13.3C60.8175 13.3 61.9703 12.3849 61.9703 10.5548C61.9703 8.72462 60.8175 7.80954 58.5114 7.80954H57.5232C57.3175 7.78801 57.1109 7.84062 56.9402 7.95793C56.8783 8.03018 56.8316 8.11446 56.8036 8.20554C56.7756 8.29662 56.7664 8.3925 56.7772 8.48722V12.5482C56.7548 12.7551 56.8056 12.9634 56.9207 13.1368C56.993 13.1987 57.0769 13.2451 57.168 13.2732C57.2587 13.3013 57.3546 13.3104 57.4493 13.3H58.5114Z" fill="white" stroke="white" stroke-width="0.343172" stroke-miterlimit="10"/>
<path d="M64.5078 13.449C64.8299 13.4174 65.1412 13.318 65.4221 13.1571C65.7881 12.9066 66.1102 12.5975 66.3755 12.242L68.8462 9.21983C68.9632 9.10628 69.0555 8.96991 69.1179 8.81915C69.1179 8.77959 69.0883 8.75487 69.0292 8.73507C68.9337 8.70959 68.8362 8.69463 68.7375 8.69056C68.2536 8.63883 67.7785 8.52407 67.3245 8.34927C66.843 8.15903 66.4095 7.86523 66.0546 7.4886C65.7042 7.11175 65.5148 6.61319 65.5256 6.09867C65.5144 5.69423 65.6163 5.29471 65.8197 4.94515C66.0231 4.59555 66.3199 4.30979 66.6772 4.12011C67.5623 3.6204 68.5668 3.37239 69.5826 3.4029H72.6015V3.44247C72.5244 3.50033 72.4613 3.57484 72.4169 3.66047C72.3721 3.74609 72.3478 3.84064 72.3446 3.93711C72.303 4.28007 72.2846 4.62547 72.2902 4.97091V11.9304C72.285 12.2758 72.303 12.6212 72.3446 12.9642C72.3482 13.0605 72.3733 13.1548 72.4177 13.2404C72.4621 13.3259 72.5248 13.4005 72.6015 13.4588V13.4935H70.5164V13.4588C70.6595 13.4394 70.7962 13.3867 70.9152 13.3052C71.0343 13.2236 71.133 13.1153 71.2033 12.989C71.3464 12.5625 71.4051 12.1122 71.376 11.6633V9.40283C71.3876 9.30811 71.3788 9.21207 71.3508 9.12091C71.3224 9.02975 71.2757 8.94547 71.2129 8.87355C71.0403 8.75707 70.8325 8.70459 70.6251 8.72519H70.0569C69.8871 8.72219 69.7185 8.75591 69.5626 8.82411C69.3992 8.91187 69.2573 9.03527 69.1475 9.18519L66.262 12.6971C66.1533 12.8307 66.079 12.9296 66.0394 12.989C66.0063 13.0444 65.9879 13.1074 65.9851 13.172C65.9867 13.2168 66.0015 13.2601 66.0283 13.2963C66.0546 13.3325 66.0914 13.3598 66.1333 13.3748C66.3096 13.4364 66.4962 13.4616 66.682 13.449V13.4836H64.5078V13.449ZM70.6895 8.54215C70.7838 8.55283 70.8797 8.54387 70.9708 8.51575C71.0615 8.48767 71.1458 8.44111 71.2181 8.37895C71.3348 8.20615 71.3872 7.99783 71.3664 7.79031V4.27839C71.3776 4.18367 71.3688 4.08763 71.3408 3.99648C71.3128 3.90532 71.2657 3.82106 71.2033 3.74915C71.0303 3.63265 70.8225 3.58016 70.6151 3.60075H69.7009C68.8526 3.544 68.009 3.77201 67.3045 4.24871C67.0332 4.46615 66.8174 4.74503 66.6748 5.06235C66.5321 5.37971 66.467 5.72639 66.4842 6.07391C66.467 6.42075 66.5321 6.76675 66.6748 7.08327C66.8174 7.39983 67.0332 7.67779 67.3045 7.8942C68.009 8.37091 68.8526 8.59891 69.7009 8.54215H70.6895Z" fill="white" stroke="white" stroke-width="0.343172" stroke-miterlimit="10"/>
<path d="M102.413 4.80756C102.418 4.46212 102.4 4.11673 102.358 3.77376C102.354 3.67751 102.329 3.58332 102.285 3.49785C102.241 3.41238 102.178 3.33771 102.102 3.27913V3.24944H103.638V3.28902C103.56 3.34611 103.497 3.42044 103.452 3.50624C103.407 3.59203 103.383 3.68697 103.381 3.78365C103.337 4.12637 103.319 4.47197 103.327 4.81745V11.6137C103.319 11.6844 103.319 11.7558 103.327 11.8264C103.337 11.8423 103.351 11.855 103.367 11.8629C103.384 11.8708 103.403 11.8736 103.421 11.871C103.48 11.871 103.584 11.777 103.732 11.594L110.66 3.14062H110.734V11.7621C110.729 12.1076 110.747 12.453 110.788 12.7959C110.793 12.8919 110.819 12.9856 110.863 13.0709C110.908 13.1562 110.97 13.231 111.045 13.2906V13.2955H109.508C109.585 13.2367 109.647 13.162 109.691 13.0765C109.736 12.9911 109.761 12.897 109.765 12.8008C109.807 12.4579 109.825 12.1125 109.82 11.7671V5.04497C109.82 4.87185 109.775 4.78777 109.691 4.78777C109.607 4.78777 109.479 4.87185 109.345 5.04497L102.482 13.4241H102.413V4.80756Z" fill="white" stroke="white" stroke-width="0.343172" stroke-miterlimit="10"/>
<path d="M117.381 13.2961C117.457 13.237 117.518 13.1621 117.562 13.0767C117.606 12.9912 117.63 12.8973 117.633 12.8014C117.677 12.4587 117.696 12.1131 117.688 11.7676V4.11066C117.708 3.92248 117.657 3.73348 117.544 3.5814C117.392 3.46569 117.201 3.41262 117.011 3.43301H115.79C115.288 3.41632 114.787 3.4849 114.308 3.63581C113.905 3.78858 113.559 4.06354 113.32 4.4223L113.043 4.8081H112.969L113.522 3.25H123.281L122.604 4.8081H122.55V4.5311C122.583 4.3685 122.571 4.1997 122.513 4.04402C122.455 3.88835 122.355 3.75203 122.224 3.65065C121.783 3.47044 121.305 3.39591 120.83 3.43301H119.259C119.07 3.41238 118.881 3.46554 118.73 3.5814C118.613 3.73161 118.56 3.92162 118.582 4.11066V11.7627C118.575 12.1083 118.595 12.4539 118.641 12.7965C118.645 12.8923 118.669 12.9863 118.712 13.0717C118.756 13.1571 118.818 13.232 118.893 13.2911V13.2961H117.361H117.381Z" fill="white" stroke="white" stroke-width="0.343172" stroke-miterlimit="10"/>
<path d="M131.162 12.9149C130.431 12.5337 129.804 11.9803 129.334 11.3024C128.857 10.612 128.562 9.81252 128.475 8.97764C128.477 8.80216 128.427 8.63 128.331 8.483C128.272 8.43648 128.205 8.40204 128.133 8.38168C128.061 8.36128 127.985 8.3554 127.911 8.36428H127.195C126.989 8.3436 126.782 8.39612 126.612 8.51268C126.549 8.5846 126.502 8.66884 126.474 8.76C126.446 8.85116 126.437 8.9472 126.449 9.04192V11.7624C126.441 12.1096 126.459 12.4568 126.503 12.8012C126.506 12.8976 126.531 12.9922 126.575 13.0778C126.619 13.1634 126.683 13.2379 126.76 13.2958H125.223C125.299 13.2363 125.361 13.1614 125.405 13.0762C125.449 12.9909 125.475 12.8971 125.48 12.8012C125.515 12.4561 125.527 12.109 125.515 11.7624V4.80784C125.52 4.4624 125.502 4.117 125.46 3.77405C125.456 3.6778 125.431 3.58361 125.387 3.49814C125.342 3.41267 125.28 3.338 125.203 3.27942V3.24974H126.74V3.28931C126.662 3.3464 126.598 3.42074 126.554 3.50653C126.509 3.59233 126.485 3.68726 126.483 3.78395C126.439 4.12668 126.421 4.47228 126.429 4.81772V7.4492C126.406 7.65616 126.457 7.8644 126.572 8.0378C126.645 8.10012 126.73 8.14676 126.822 8.17484C126.914 8.20288 127.01 8.21184 127.106 8.20104H127.817C127.981 8.21644 128.145 8.17448 128.282 8.08232C128.388 7.97148 128.449 7.82528 128.455 7.6718C128.539 6.82472 128.821 6.00948 129.28 5.2926C129.718 4.60584 130.325 4.04368 131.044 3.66029C131.796 3.266 132.636 3.06541 133.485 3.07662C134.396 3.0668 135.294 3.29708 136.089 3.74438C136.866 4.18196 137.511 4.821 137.956 5.59432C138.414 6.39304 138.65 7.30004 138.639 8.22084C138.653 9.16912 138.43 10.106 137.991 10.9463C137.579 11.7177 136.962 12.3597 136.207 12.8012C135.414 13.262 134.51 13.4964 133.593 13.4788C132.749 13.4926 131.915 13.299 131.162 12.9149ZM135.827 12.7022C136.43 12.2701 136.899 11.6771 137.181 10.9908C137.517 10.1928 137.685 9.33408 137.675 8.46816C137.692 7.54432 137.513 6.62736 137.151 5.77732C136.837 5.01456 136.306 4.36096 135.624 3.89771C134.943 3.44572 134.139 3.21276 133.322 3.22996C132.591 3.21428 131.873 3.42883 131.271 3.8433C130.67 4.27608 130.203 4.86908 129.922 5.55476C129.583 6.3536 129.415 7.21456 129.428 8.08232C129.415 9.01324 129.597 9.93652 129.962 10.793C130.275 11.5436 130.799 12.1877 131.469 12.6478C132.154 13.0938 132.959 13.3199 133.776 13.2958C134.505 13.3173 135.222 13.1097 135.827 12.7022Z" fill="white" stroke="white" stroke-width="0.343172" stroke-miterlimit="10"/>
<path d="M141.859 13.2961C141.934 13.2365 141.996 13.1617 142.041 13.0764C142.085 12.9911 142.111 12.8974 142.116 12.8014C142.157 12.4585 142.176 12.1131 142.171 11.7676V4.8081C142.176 4.46266 142.158 4.11726 142.116 3.77431C142.112 3.67806 142.087 3.58387 142.043 3.4984C141.998 3.41293 141.936 3.33826 141.859 3.27968V3.25H143.396V3.28957C143.318 3.34666 143.254 3.42099 143.21 3.50678C143.165 3.59258 143.141 3.68752 143.139 3.7842C143.095 4.12694 143.077 4.4725 143.085 4.81798V12.6035C143.077 12.6775 143.085 12.7523 143.108 12.8231C143.13 12.8938 143.168 12.9589 143.218 13.0141C143.356 13.1063 143.522 13.1481 143.688 13.1328H147.601C147.765 13.1478 147.929 13.1059 148.065 13.0141C148.116 12.9591 148.154 12.8942 148.178 12.8235C148.202 12.7528 148.21 12.6779 148.204 12.6035V4.8081C148.209 4.46266 148.191 4.11726 148.149 3.77431C148.145 3.67806 148.12 3.58387 148.076 3.4984C148.031 3.41293 147.969 3.33826 147.892 3.27968V3.25H149.429V3.28957C149.351 3.34666 149.287 3.42099 149.243 3.50678C149.198 3.59258 149.174 3.68752 149.172 3.7842C149.128 4.12694 149.11 4.4725 149.118 4.81798V12.5294C149.102 12.6934 149.144 12.8577 149.237 12.9943C149.29 13.0471 149.354 13.0869 149.426 13.1109C149.497 13.1349 149.572 13.1424 149.647 13.1328H153.703C153.778 13.1432 153.855 13.1361 153.927 13.1121C153.999 13.0881 154.064 13.0477 154.118 12.9943C154.21 12.8577 154.252 12.6934 154.237 12.5294V4.8081C154.239 4.46242 154.218 4.11702 154.173 3.77431C154.169 3.67806 154.144 3.58387 154.099 3.4984C154.055 3.41293 153.992 3.33826 153.916 3.27968V3.25H155.453V3.28957C155.374 3.34666 155.311 3.42099 155.266 3.50678C155.222 3.59258 155.197 3.68752 155.196 3.7842C155.159 4.12414 155.147 4.46642 155.161 4.8081V11.7627C155.153 12.1081 155.171 12.4537 155.215 12.7965C155.218 12.8929 155.243 12.9875 155.288 13.0731C155.332 13.1587 155.395 13.2333 155.472 13.2911V13.2961H141.859Z" fill="white" stroke="white" stroke-width="0.343172" stroke-miterlimit="10"/>
<path d="M160.158 4.80756C160.166 4.46209 160.148 4.11648 160.104 3.77376C160.101 3.67763 160.078 3.58322 160.034 3.49757C159.991 3.41191 159.928 3.33724 159.852 3.27913V3.24944H161.383V3.28902C161.307 3.34713 161.245 3.4218 161.201 3.50746C161.157 3.59311 161.133 3.68753 161.131 3.78365C161.092 4.12345 161.079 4.46572 161.092 4.80756V11.6137C161.083 11.6844 161.083 11.7558 161.092 11.8264C161.101 11.8423 161.115 11.855 161.132 11.8629C161.149 11.8708 161.167 11.8736 161.186 11.871C161.245 11.871 161.349 11.777 161.497 11.594L168.415 3.14062H168.503V11.7621C168.498 12.1076 168.517 12.453 168.558 12.7959C168.562 12.8921 168.587 12.9862 168.632 13.0716C168.677 13.157 168.739 13.2317 168.815 13.2906V13.2955H167.278C167.353 13.236 167.415 13.1611 167.46 13.0758C167.504 12.9906 167.53 12.8968 167.535 12.8008C167.576 12.4579 167.595 12.1125 167.59 11.7671V5.04497C167.59 4.87185 167.545 4.78777 167.461 4.78777C167.377 4.78777 167.248 4.87185 167.115 5.04497L160.232 13.4241H160.158V4.80756Z" fill="white" stroke="white" stroke-width="0.343172" stroke-miterlimit="10"/>
<path d="M173.172 13.2961C173.247 13.2359 173.308 13.1609 173.352 13.0757C173.397 12.9906 173.423 12.8972 173.429 12.8014C173.47 12.4551 173.488 12.1065 173.484 11.7577V4.83282C173.492 4.48102 173.477 4.12906 173.439 3.77926C173.434 3.68314 173.409 3.58919 173.364 3.50381C173.32 3.41844 173.258 3.34367 173.182 3.28462V3.25H174.719V3.28957C174.641 3.34718 174.578 3.42163 174.533 3.50731C174.489 3.59299 174.465 3.68767 174.462 3.7842C174.418 4.1303 174.4 4.47914 174.407 4.8279V7.36042C174.388 7.56558 174.439 7.77122 174.551 7.9441C174.626 8.00706 174.714 8.05398 174.808 8.08206C174.903 8.1101 175.002 8.1187 175.099 8.1073H180.292C180.391 8.12146 180.492 8.11514 180.587 8.08874C180.683 8.06238 180.773 8.0165 180.851 7.95398C180.967 7.7829 181.019 7.57626 180.999 7.3703V4.82294C181.004 4.47422 180.985 4.12558 180.945 3.77926C180.94 3.68314 180.914 3.58919 180.87 3.50381C180.826 3.41844 180.764 3.34367 180.688 3.28462V3.25H182.224V3.28957C182.147 3.34718 182.084 3.42163 182.039 3.50731C181.994 3.59299 181.97 3.68767 181.967 3.7842C181.924 4.1303 181.906 4.47914 181.913 4.8279V11.7528C181.905 12.1015 181.924 12.4504 181.967 12.7965C181.972 12.8927 181.996 12.9869 182.041 13.0724C182.086 13.1579 182.148 13.2325 182.224 13.2911V13.2961H180.688C180.762 13.2359 180.824 13.1609 180.868 13.0757C180.912 12.9906 180.938 12.8972 180.945 12.8014C180.986 12.4551 181.004 12.1065 180.999 11.7577V8.99766C181.019 8.8057 180.966 8.61334 180.851 8.4585C180.696 8.33554 180.499 8.27866 180.302 8.30022H175.089C174.893 8.27866 174.696 8.33554 174.541 8.4585C174.43 8.61526 174.379 8.80658 174.397 8.99766V11.7429C174.39 12.0917 174.408 12.4405 174.452 12.7866C174.456 12.8828 174.481 12.977 174.525 13.0625C174.57 13.1479 174.632 13.2226 174.709 13.2812V13.2961H173.172Z" fill="white" stroke="white" stroke-width="0.343172" stroke-miterlimit="10"/>
<path d="M185.039 13.2961C185.173 13.2195 185.291 13.1169 185.385 12.9943C185.535 12.7656 185.667 12.5258 185.78 12.2771C185.958 11.9209 186.181 11.4412 186.447 10.8427L189.298 4.43714C189.368 4.28142 189.405 4.11306 189.407 3.94249C189.411 3.85914 189.388 3.77673 189.342 3.7073C189.296 3.63788 189.229 3.58509 189.15 3.55667C188.874 3.47055 188.585 3.43372 188.295 3.44785H187.49V3.25H190.064L193.612 11.5797C194.042 12.5689 194.368 13.1328 194.6 13.2812V13.2961H192.555C192.93 13.207 193.118 13.0586 193.118 12.836C193.116 12.7237 193.093 12.6128 193.049 12.5096L192.318 10.7685C192.243 10.5554 192.113 10.366 191.942 10.2194C191.762 10.1122 191.553 10.0622 191.344 10.076H187.525C187.364 10.0669 187.205 10.1084 187.07 10.1947C186.933 10.3088 186.826 10.4549 186.759 10.6201L185.864 12.5986C185.825 12.6788 185.805 12.7667 185.805 12.8558C185.805 13.0636 185.949 13.2021 186.23 13.2763V13.2961H185.039ZM191.329 9.88802C191.631 9.88802 191.784 9.80886 191.784 9.65058C191.785 9.56346 191.767 9.47722 191.729 9.3983L189.753 4.74874C189.694 4.60034 189.625 4.52614 189.555 4.52614C189.486 4.52614 189.383 4.6251 189.298 4.82294L187.288 9.3983C187.243 9.47546 187.218 9.56186 187.213 9.65058C187.213 9.80886 187.367 9.88802 187.668 9.88802H191.329Z" fill="white" stroke="white" stroke-width="0.343172" stroke-miterlimit="10"/>
<path d="M1.84127 7.17141C2.03573 7.02701 2.27757 6.96161 2.51822 6.98837H7.45944V6.80537H2.51822C2.27781 6.82925 2.03698 6.76413 1.84127 6.62233C1.69963 6.42641 1.63459 6.18537 1.65845 5.94469V2.63064C1.65336 2.1961 1.67481 1.76166 1.72268 1.32974C1.73356 1.09401 1.83648 0.871979 2.00927 0.711447V0.671875H0.398438V0.711447C0.484178 0.790515 0.553263 0.885943 0.601633 0.992123C0.649999 1.0983 0.676672 1.2131 0.680085 1.32974C0.738728 1.7609 0.768442 2.1955 0.769029 2.63064V11.5341C0.776785 11.9687 0.755327 12.4033 0.704791 12.835C0.701758 12.9524 0.675274 13.0681 0.626903 13.1751C0.578533 13.2821 0.509252 13.3784 0.423144 13.4582V13.4929H2.00927V13.4582C1.8353 13.2965 1.73228 13.0725 1.72268 12.835C1.67466 12.4031 1.65321 11.9686 1.65845 11.5341V7.85397C1.63335 7.61169 1.69845 7.36861 1.84127 7.17141Z" fill="white" stroke="white" stroke-width="0.343172" stroke-miterlimit="10"/>
<path d="M10.3184 1.32974C10.3293 1.09401 10.4322 0.871979 10.605 0.711447V0.671875H8.99417V0.711447C9.07993 0.790515 9.14901 0.885943 9.19736 0.992123C9.24575 1.0983 9.27241 1.21309 9.27584 1.32974C9.32623 1.76145 9.34769 2.19605 9.34006 2.63063V5.94469C9.37107 6.18369 9.31109 6.42561 9.17207 6.62233C8.97635 6.76413 8.73552 6.82925 8.49513 6.80537H7.58594V6.98837H8.4803C8.72109 6.95957 8.96368 7.02517 9.15725 7.17137C9.30457 7.36645 9.37015 7.61129 9.34006 7.85397V11.5291C9.34781 11.9637 9.32635 12.3983 9.27584 12.83C9.27281 12.9475 9.24631 13.0631 9.19796 13.1701C9.14957 13.2772 9.08028 13.3735 8.99417 13.4533V13.4879H10.605V13.4533C10.4311 13.2915 10.328 13.0675 10.3184 12.83C10.2704 12.3981 10.249 11.9636 10.2542 11.5291V2.62569C10.2493 2.1928 10.2707 1.76002 10.3184 1.32974Z" fill="white" stroke="white" stroke-width="0.343172" stroke-miterlimit="10"/>
<path d="M86.9653 0.400391H86.8906V2.00965L87.5915 3.2672L92.4621 11.8332H92.5197L97.0066 3.46977C97.2052 3.11307 97.3463 2.93252 97.4474 2.93252C97.477 2.93543 97.5045 2.94843 97.5253 2.96931C97.5461 2.99018 97.5593 3.01764 97.5621 3.04702C97.5853 3.19261 97.594 3.34009 97.5885 3.48739V11.5066C97.5948 11.9478 97.5741 12.389 97.5269 12.8277C97.5161 13.0666 97.4134 13.2922 97.2404 13.4574V13.5014H98.8667V13.4662C98.6937 13.301 98.591 13.0754 98.5802 12.8365C98.5287 12.3981 98.5067 11.9567 98.5143 11.5154V0.400391H98.4436L93.187 10.2618C93.0371 10.5613 92.926 10.7368 92.7982 10.7368C92.6703 10.7368 92.618 10.5826 92.4461 10.2964L86.9653 0.400391Z" fill="white" stroke="white" stroke-width="0.34" stroke-miterlimit="10"/>
<path d="M87.0474 13.7111C87.8286 13.7111 88.4619 13.0771 88.4619 12.295C88.4619 11.5129 87.8286 10.8789 87.0474 10.8789C86.2662 10.8789 85.6328 11.5129 85.6328 12.295C85.6328 13.0771 86.2662 13.7111 87.0474 13.7111Z" fill="white"/>
</g>
</g>
<defs>
<clipPath id="clip0_548_2063">
<rect width="195" height="14" fill="white"/>
</clipPath>
</defs>
</svg>
