<svg width="24" height="24" viewBox="0 0 24 24" fill="none" xmlns="http://www.w3.org/2000/svg">
<path d="M2.9868 3.99596L2.98746 3.99534C3.03198 3.95356 3.12583 3.88666 3.45447 3.84521C3.80111 3.8015 4.27175 3.8 5 3.8H19C19.7288 3.8 20.1996 3.8015 20.5463 3.84521C20.875 3.88667 20.9681 3.95354 21.0119 3.99472L21.0132 3.99596C21.0507 4.03105 21.1122 4.09915 21.1531 4.38389C21.1981 4.69716 21.2 5.12692 21.2 5.814V6.504C21.2 7.03931 21.199 7.38067 21.1718 7.64351C21.1465 7.88697 21.1038 7.99802 21.0554 8.07806L21.0547 8.07923C21.005 8.16172 20.9199 8.25937 20.7012 8.41115C20.4699 8.57168 20.1531 8.75076 19.6659 9.02466L19.6655 9.02489L16.7525 10.6649L16.7518 10.6653C16.7172 10.6848 16.6834 10.7039 16.6501 10.7227C16.1094 11.0275 15.7298 11.2416 15.4442 11.488C14.8542 11.9841 14.4457 12.662 14.2826 13.4154C14.1996 13.7879 14.1998 14.2053 14.2 14.7799C14.2 14.8101 14.2 14.8408 14.2 14.872V17.542C14.2 18.5251 14.1976 19.1657 14.1263 19.6183C14.0589 20.0457 13.958 20.1144 13.9084 20.1454L13.9076 20.1458C13.8428 20.1864 13.7013 20.2485 13.2278 20.1361C12.7424 20.0209 12.1 19.772 11.1376 19.3961C10.6748 19.2149 10.3851 19.1005 10.1755 18.9921C9.98065 18.8915 9.92827 18.8316 9.90435 18.7979L9.90373 18.7971C9.88282 18.7677 9.84852 18.7107 9.82617 18.518C9.80124 18.303 9.8 18.016 9.8 17.543V14.873C9.8 14.8416 9.80001 14.8107 9.80002 14.7802C9.80025 14.2048 9.80042 13.7868 9.71701 13.4147C9.54665 12.6468 9.16159 12.0135 8.56255 11.494C8.27348 11.2429 7.88994 11.0272 7.3407 10.7183C7.31014 10.7011 7.27907 10.6837 7.24747 10.6659C7.24745 10.6659 7.24743 10.6659 7.24742 10.6659L4.33447 9.02589L4.33431 9.0258C3.84724 8.75172 3.5305 8.57208 3.29965 8.4114C3.08144 8.25951 2.99541 8.16112 2.94459 8.07706C2.89609 7.99686 2.85344 7.88594 2.82823 7.64303C2.80099 7.38063 2.8 7.03983 2.8 6.505V5.815C2.8 5.12742 2.80193 4.69739 2.84689 4.38398C2.88776 4.09911 2.94935 4.03103 2.9868 3.99596L2.9868 3.99596Z" fill="#494646" stroke="#494646" stroke-width="1.6"/>
</svg>
