<svg width="11" height="11" viewBox="0 0 11 11" fill="none" xmlns="http://www.w3.org/2000/svg">
<path d="M5.5 1.10327L6.41452 2.90206L6.58737 3.24205L6.96096 3.16521L8.9375 2.75868L8.10134 4.59521L7.9433 4.94233L8.2363 5.1865L9.7865 6.47836L7.8293 6.96969L7.45938 7.06255L7.45116 7.44387L7.40767 9.46132L5.80325 8.23746L5.5 8.00614L5.19675 8.23746L3.59233 9.46132L3.54884 7.44387L3.54062 7.06255L3.1707 6.96969L1.2135 6.47836L2.7637 5.1865L3.0567 4.94233L2.89866 4.59521L2.0625 2.75868L4.03904 3.16521L4.41263 3.24205L4.58548 2.90206L5.5 1.10327Z" fill="#494646" stroke="#494646"/>
</svg>
