<svg width="318" height="159" viewBox="0 0 318 159" fill="none" xmlns="http://www.w3.org/2000/svg">
<path fill-rule="evenodd" clip-rule="evenodd" d="M291.804 138.484C307.892 123.936 318 102.898 318 79.5C318 56.0337 307.833 34.9421 291.663 20.3898C284.375 64.5968 248.093 99.0291 203 103.506V150.653C213.685 155.995 225.742 159 238.5 159C250.843 159 262.528 156.187 272.951 151.168C272.354 134.002 266.348 118.211 256.586 105.446C262.238 101.852 267.505 97.7055 272.311 93.0835C282.299 106.068 289.17 121.575 291.804 138.484ZM183 136.421C168.194 121.982 159 101.815 159 79.5C159 57.1853 168.194 37.0178 183 22.5789V83.3811V103.506V136.421ZM203 8.34683V83.3811C241.227 78.6143 271.078 46.8773 272.911 7.81271C262.498 2.80546 250.827 0 238.5 0C225.742 0 213.685 3.00539 203 8.34683Z" fill="#131313"/>
<path fill-rule="evenodd" clip-rule="evenodd" d="M90.9546 23.252C88.5784 18.9122 85.6355 17.1623 83.1787 16.8533C80.7219 16.5444 77.4373 17.5112 74.0606 21.1275C70.6946 24.7325 67.8632 30.445 66.9769 37.4931C66.0905 44.5412 67.4194 50.7769 69.7881 55.103C72.1643 59.4428 75.1073 61.1927 77.564 61.5017C80.0208 61.8106 83.3054 60.8438 86.6821 57.2274C90.0481 53.6225 92.8796 47.91 93.7659 40.8619C94.6522 33.8138 93.3233 27.5781 90.9546 23.252ZM108.497 13.6468C113.1 22.0527 114.963 32.5964 113.61 43.3573C112.256 54.1182 107.841 63.8723 101.3 70.8769C94.7705 77.8701 85.4891 82.6558 75.0687 81.3454C64.6482 80.035 56.8407 73.1004 52.2456 64.7082C47.6431 56.3023 45.7799 45.7586 47.1331 34.9977C48.4863 24.2368 52.902 14.4827 59.4424 7.47806C61.8316 4.91931 64.5892 2.6561 67.6361 0.878906C29.3567 6.60655 0 39.6248 0 79.4997C0 96.6107 5.40584 112.459 14.6028 125.43C29.9269 106.261 53.8245 93.9993 80.5 93.9993C106.556 93.9993 129.962 105.698 145.316 124.106C153.953 111.387 159 96.0328 159 79.4997C159 42.2788 133.421 11.0321 98.8826 2.37922C102.89 5.36252 106.123 9.31004 108.497 13.6468ZM131.853 139.329C120.351 124.022 101.717 113.999 80.5 113.999C58.8002 113.999 39.8026 124.483 28.3733 140.381C42.195 152.001 60.0302 159 79.5 159C99.5508 159 117.868 151.577 131.853 139.329Z" fill="#5CD928"/>
</svg>
