<svg width="21" height="18" viewBox="0 0 21 18" fill="none" xmlns="http://www.w3.org/2000/svg">
<path d="M1.24088 8.2201C1.24088 8.2201 10.1925 4.44981 13.2971 3.1222C14.4873 2.5912 18.5233 0.891847 18.5233 0.891847C18.5233 0.891847 20.3861 0.148447 20.2308 1.95392C20.179 2.6974 19.7651 5.29941 19.3512 8.1139C18.7302 12.0967 18.0576 16.4511 18.0576 16.4511C18.0576 16.4511 17.9541 17.6725 17.0744 17.8849C16.1948 18.0973 14.7459 17.1415 14.4873 16.929C14.2802 16.7698 10.6065 14.3801 9.26115 13.2118C8.89893 12.8932 8.485 12.256 9.31285 11.5125C11.1757 9.76011 13.4006 7.5829 14.7459 6.20222C15.3669 5.56495 15.9878 4.07807 13.4006 5.88355C9.72685 8.48563 6.10479 10.9284 6.10479 10.9284C6.10479 10.9284 5.27687 11.4594 3.72457 10.9814C2.17221 10.5036 0.361182 9.86631 0.361182 9.86631C0.361182 9.86631 -0.880594 9.06977 1.24088 8.2201Z" fill="white"/>
</svg>
