<svg width="455" height="461" viewBox="0 0 455 461" fill="none" xmlns="http://www.w3.org/2000/svg">
<g opacity="0.7" clip-path="url(#clip0_872_9548)">
<path d="M45.7658 0.212891H43.2031V55.1209L67.1719 98.0289L233.746 390.301H235.706L389.167 104.941C395.95 92.7702 400.774 86.6093 404.241 86.6093C405.247 86.7088 406.187 87.152 406.902 87.8645C407.616 88.5765 408.061 89.5136 408.161 90.516C408.949 95.4836 409.251 100.516 409.065 105.542V379.156C409.279 394.21 408.575 409.263 406.955 424.233C406.585 432.384 403.075 440.08 397.156 445.719V447.221H452.782V446.019C446.863 440.381 443.353 432.685 442.983 424.533C441.22 409.575 440.465 394.515 440.722 379.456V0.212891H438.31L258.536 336.687C253.41 346.904 249.612 352.89 245.24 352.89C240.869 352.89 239.078 347.631 233.199 337.865L45.7658 0.212891Z" fill="white"/>
<path fill-rule="evenodd" clip-rule="evenodd" d="M40.9922 -2H47.0757L235.123 336.758C236.394 338.871 237.478 340.777 238.425 342.444C238.579 342.715 238.73 342.98 238.877 343.239C239.946 345.117 240.815 346.612 241.621 347.794C243.259 350.196 244.221 350.677 245.245 350.677C246.339 350.677 247.806 349.93 249.854 347.271C251.847 344.684 253.995 340.807 256.559 335.696L256.572 335.67L436.986 -2H442.942V379.476V379.494C442.686 394.454 443.437 409.414 445.188 424.274L445.198 424.353L445.202 424.432C445.546 432.014 448.81 439.173 454.316 444.418L455.003 445.072V449.434H394.945V444.772L395.632 444.118C401.138 438.872 404.402 431.714 404.746 424.132L404.749 424.063L404.757 423.994C406.367 409.115 407.067 394.152 406.854 379.187V379.171V105.501L406.856 105.46C407.037 100.577 406.743 95.6885 405.977 90.8625L405.967 90.7986L405.961 90.7347C405.912 90.2428 405.693 89.7818 405.341 89.4308C405.019 89.1101 404.604 88.8993 404.155 88.8282C403.909 88.8552 403.437 89.0001 402.694 89.5454C401.86 90.1579 400.855 91.1497 399.673 92.6051C397.312 95.512 394.487 99.9548 391.115 106.004L391.107 106.017L237.036 392.514H232.463L65.2416 99.1072L40.9922 55.6964V-2ZM45.4237 4.15185V54.5453L69.1025 96.9339L69.1117 96.951L234.703 387.498L387.219 103.894L387.227 103.879L387.235 103.864C390.644 97.7492 393.62 93.0312 396.232 89.8167C397.537 88.2104 398.813 86.9025 400.069 85.9792C401.312 85.0671 402.721 84.3967 404.246 84.3967H404.356L404.464 84.4072C405.979 84.5567 407.394 85.2245 408.472 86.298C409.532 87.355 410.199 88.7413 410.363 90.2277C411.164 95.3039 411.474 100.446 411.286 105.582V379.141C411.5 394.257 410.794 409.372 409.169 424.403C408.807 432.031 405.876 439.282 400.899 445.009H448.791C443.972 439.333 441.136 432.206 440.778 424.714C439.011 409.689 438.254 394.563 438.511 379.438V4.54625L260.509 337.703C257.953 342.798 255.643 347.014 253.366 349.97C251.141 352.858 248.523 355.103 245.245 355.103C241.898 355.103 239.779 352.956 237.958 350.286C237.036 348.932 236.082 347.283 235.024 345.427C234.875 345.164 234.723 344.897 234.568 344.623C233.615 342.947 232.554 341.08 231.305 339.005L231.285 338.972L45.4237 4.15185Z" fill="white"/>
<path d="M96.7574 406.039C96.7574 432.723 75.0974 454.355 48.3786 454.355C21.6599 454.355 0 432.723 0 406.039C0 379.355 21.6599 357.723 48.3786 357.723C75.0974 357.723 96.7574 379.355 96.7574 406.039Z" fill="white"/>
</g>
<defs>
<clipPath id="clip0_872_9548">
<rect width="455" height="461" fill="white"/>
</clipPath>
</defs>
</svg>
