<svg width="9" height="9" viewBox="0 0 9 9" fill="none" xmlns="http://www.w3.org/2000/svg">
<path d="M7.23016 2.65873L1.59524 8.30952C1.46825 8.43651 1.31735 8.5 1.14254 8.5C0.967725 8.5 0.817037 8.43651 0.690476 8.30952C0.563492 8.18254 0.5 8.03164 0.5 7.85683C0.5 7.68201 0.563492 7.53132 0.690476 7.40476L6.34127 1.76984H1.51587C1.33598 1.76984 1.18508 1.70889 1.06317 1.58699C0.94127 1.46508 0.880529 1.31439 0.880952 1.13492C0.880952 0.955029 0.941905 0.804129 1.06381 0.682224C1.18571 0.56032 1.3364 0.499579 1.51587 0.500002H7.86508C8.04497 0.500002 8.19587 0.560955 8.31778 0.682859C8.43968 0.804764 8.50042 0.955452 8.5 1.13492V7.48413C8.5 7.66402 8.43905 7.81492 8.31714 7.93682C8.19524 8.05873 8.04455 8.11947 7.86508 8.11905C7.68518 8.11905 7.53428 8.05809 7.41238 7.93619C7.29047 7.81429 7.22973 7.6636 7.23016 7.48413V2.65873Z" fill="white"/>
</svg>
