<svg width="173" height="174" viewBox="0 0 173 174" fill="none" xmlns="http://www.w3.org/2000/svg">
<path fill-rule="evenodd" clip-rule="evenodd" d="M86.5 173.848C134.273 173.848 173 135.12 173 87.3477C173 39.5751 134.273 0.847656 86.5 0.847656C55.8643 0.847656 28.9482 16.7741 13.5799 40.7989L56.9847 119.091C57.3 119.616 57.568 120.088 57.8055 120.506C58.672 122.033 59.131 122.842 59.9864 122.842C61.0763 122.842 62.0229 121.347 63.3005 118.797L108.114 34.8135H108.716V129.473C108.651 133.231 108.84 136.99 109.279 140.724C109.372 142.758 110.246 144.679 111.722 146.087V146.387H97.8556V146.012C99.331 144.604 100.206 142.683 100.298 140.649C100.702 136.912 100.878 133.155 100.824 129.398V61.1036C100.871 59.8492 100.795 58.5931 100.599 57.3533C100.574 57.103 100.463 56.8691 100.285 56.6914C100.107 56.5137 99.8725 56.4029 99.6217 56.3781C98.7576 56.3781 97.5551 57.9159 95.864 60.9536L57.6096 132.179H57.1212L15.5977 59.2283L9.62284 48.5186V47.658C3.47337 59.5451 0 73.0408 0 87.3477C0 135.12 38.7274 173.848 86.5 173.848Z" fill="#494646"/>
</svg>
