<svg width="207" height="171" viewBox="0 0 207 171" fill="none" xmlns="http://www.w3.org/2000/svg">
<path fill-rule="evenodd" clip-rule="evenodd" d="M0.500566 43.0002C0.966295 43.1821 0.966251 43.1822 0.966255 43.1822L0.967854 43.1782L0.974025 43.1627C0.979686 43.1485 0.988454 43.1268 1.00039 43.0976C1.02427 43.0393 1.06083 42.9515 1.11059 42.8357C1.21011 42.604 1.36242 42.2607 1.57165 41.8186C1.99012 40.9344 2.63618 39.6556 3.54287 38.0863C5.35641 34.9475 8.21157 30.6486 12.3723 26.0221C20.6915 16.7717 34.233 6.20749 55.1218 0.985279L54.8793 0.0151367C33.7681 5.29293 20.0597 15.9788 11.6288 25.3534C7.41456 30.0393 4.51973 34.3967 2.67701 37.586C1.75558 39.1808 1.09695 40.484 0.667768 41.3908C0.453168 41.8442 0.295905 42.1986 0.191812 42.4409C0.139765 42.562 0.101008 42.6551 0.0750195 42.7186C0.0620253 42.7503 0.0522232 42.7746 0.045548 42.7913L0.0378721 42.8106L0.0357777 42.8159L0.0351637 42.8174C0.0349766 42.8179 0.0348375 42.8183 0.500566 43.0002ZM126.379 4.48528C133.414 6.24393 145.705 10.0002 158.497 16.7248C171.292 23.4509 184.559 33.1306 193.584 46.7219L194.417 46.1687C185.267 32.3886 171.844 22.6108 158.963 15.8397C146.079 9.06713 133.707 5.28654 126.622 3.51514L126.379 4.48528ZM205.497 91.0567C208.013 68.9171 201.135 56.8054 198.926 53.237L198.075 53.7634C200.2 57.195 206.988 69.0833 204.504 90.9438C202.717 106.672 193.889 119.447 180.591 129.769C167.286 140.095 149.529 147.945 129.96 153.805C90.8223 165.525 44.5574 169.25 12.5045 169L12.4967 170C44.6104 170.25 90.9824 166.521 130.247 154.763C149.878 148.885 167.764 140.99 181.204 130.558C194.65 120.122 203.672 107.124 205.497 91.0567Z" fill="#FFDA70"/>
</svg>
