<svg width="40" height="40" viewBox="0 0 40 40" fill="none" xmlns="http://www.w3.org/2000/svg"><g clip-path="url(#clip0_574_1452)"><path d="M32 0H8C3.58172 0 0 3.58172 0 8V32C0 36.4183 3.58172 40 8 40H32C36.4183 40 40 36.4183 40 32V8C40 3.58172 36.4183 0 32 0Z" fill="#35C759"/><path d="M23.9643 21.0001L24.4371 17.9177H21.4771V15.9177C21.4565 15.6875 21.4879 15.4557 21.569 15.2393C21.6502 15.0229 21.7789 14.8275 21.9458 14.6675C22.1126 14.5076 22.3133 14.3872 22.5329 14.3153C22.7525 14.2434 22.9855 14.2218 23.2147 14.2521H24.5587V11.6313C23.7693 11.5039 22.9717 11.4344 22.1723 11.4233C19.7363 11.4233 18.1443 12.9001 18.1443 15.5721V17.9217H15.4395V21.0041H18.1451V28.4561C19.2493 28.6284 20.3736 28.6284 21.4779 28.4561V21.0001H23.9643Z" fill="white"/></g><defs><clipPath id="clip0_574_1452"><rect width="40" height="40" fill="white"/></clipPath></defs></svg>