<svg width="40" height="40" viewBox="0 0 40 40" fill="none" xmlns="http://www.w3.org/2000/svg"><g clip-path="url(#clip0_574_1456)"><path d="M32 0H8C3.58172 0 0 3.58172 0 8V32C0 36.4183 3.58172 40 8 40H32C36.4183 40 40 36.4183 40 32V8C40 3.58172 36.4183 0 32 0Z" fill="#35C759"/><path d="M25.1906 15.996C25.8255 15.996 26.3402 15.4813 26.3402 14.8464C26.3402 14.2115 25.8255 13.6968 25.1906 13.6968C24.5557 13.6968 24.041 14.2115 24.041 14.8464C24.041 15.4813 24.5557 15.996 25.1906 15.996Z" fill="white"/><path d="M20.0796 15.1704C19.1244 15.1704 18.1906 15.4537 17.3964 15.9843C16.6022 16.515 15.9832 17.2693 15.6176 18.1518C15.2521 19.0343 15.1565 20.0054 15.3428 20.9422C15.5292 21.8791 15.9891 22.7396 16.6646 23.4151C17.34 24.0905 18.2005 24.5505 19.1374 24.7368C20.0742 24.9232 21.0453 24.8275 21.9278 24.462C22.8103 24.0964 23.5646 23.4774 24.0953 22.6832C24.626 21.889 24.9092 20.9552 24.9092 20C24.9077 18.7196 24.3984 17.492 23.493 16.5866C22.5876 15.6812 21.36 15.1719 20.0796 15.1704ZM20.0796 23.0904C19.4678 23.0904 18.8696 22.909 18.3609 22.569C17.8522 22.2291 17.4556 21.746 17.2215 21.1807C16.9873 20.6154 16.9261 19.9934 17.0455 19.3933C17.1648 18.7932 17.4594 18.242 17.8921 17.8093C18.3247 17.3767 18.876 17.082 19.4761 16.9627C20.0762 16.8433 20.6982 16.9045 21.2635 17.1387C21.8288 17.3728 22.3119 17.7694 22.6518 18.2781C22.9918 18.7868 23.1732 19.385 23.1732 19.9968C23.1732 20.8176 22.8474 21.6048 22.2673 22.1854C21.6872 22.7661 20.9004 23.0928 20.0796 23.0936V23.0904Z" fill="white"/><path d="M23.9145 29.8057H16.0857C14.524 29.804 13.0267 29.1829 11.9224 28.0786C10.8181 26.9743 10.197 25.477 10.1953 23.9153V16.0857C10.197 14.524 10.8181 13.0267 11.9224 11.9224C13.0267 10.8181 14.524 10.197 16.0857 10.1953H23.9145C25.4762 10.197 26.9735 10.8181 28.0778 11.9224C29.1821 13.0267 29.8032 14.524 29.8049 16.0857V23.9145C29.8034 25.4764 29.1824 26.9738 28.0781 28.0783C26.9737 29.1828 25.4764 29.804 23.9145 29.8057ZM16.0857 12.0401C15.0131 12.0414 13.9849 12.468 13.2264 13.2264C12.468 13.9849 12.0414 15.0131 12.0401 16.0857V23.9145C12.0414 24.9871 12.468 26.0154 13.2264 26.7738C13.9849 27.5322 15.0131 27.9588 16.0857 27.9601H23.9145C24.9871 27.9588 26.0154 27.5322 26.7738 26.7738C27.5322 26.0154 27.9588 24.9871 27.9601 23.9145V16.0857C27.9588 15.0131 27.5322 13.9849 26.7738 13.2264C26.0154 12.468 24.9871 12.0414 23.9145 12.0401H16.0857Z" fill="white"/></g><defs><clipPath id="clip0_574_1456"><rect width="40" height="40" fill="white"/></clipPath></defs></svg>