<svg width="40" height="40" viewBox="0 0 40 40" fill="none" xmlns="http://www.w3.org/2000/svg"><g clip-path="url(#clip0_574_1467)"><path d="M32 0H8C3.58172 0 0 3.58172 0 8V32C0 36.4183 3.58172 40 8 40H32C36.4183 40 40 36.4183 40 32V8C40 3.58172 36.4183 0 32 0Z" fill="#35C759"/><path d="M28.7628 15.1902C28.8972 14.735 28.7628 14.3998 28.1148 14.3998H25.9708C25.7704 14.3856 25.5708 14.4373 25.4026 14.5471C25.2343 14.6568 25.1066 14.8186 25.0388 15.0078C24.374 16.5885 23.4863 18.0659 22.4028 19.395C21.9044 19.8934 21.6748 20.0542 21.402 20.0542C21.2676 20.0542 21.0596 19.8942 21.0596 19.439V15.1902C21.0596 14.6438 20.9068 14.3998 20.4556 14.3998H17.0844C17.0162 14.3959 16.9479 14.4055 16.8835 14.4282C16.8191 14.4508 16.7597 14.4859 16.7089 14.5316C16.6581 14.5773 16.6169 14.6325 16.5876 14.6942C16.5582 14.7559 16.5414 14.8228 16.538 14.891C16.538 15.4078 17.31 15.531 17.39 16.9846V20.1446C17.39 20.8366 17.266 20.9638 16.99 20.9638C16.262 20.9638 14.4924 18.2918 13.4444 15.2334C13.2332 14.6398 13.026 14.3998 12.4764 14.3998H10.3348C9.72361 14.3998 9.59961 14.6878 9.59961 15.0078C9.59961 15.5758 10.3276 18.3974 12.9892 22.1278C14.762 24.6702 17.2588 26.0494 19.5308 26.0494C20.8956 26.0494 21.0636 25.7438 21.0636 25.2158C21.0636 22.7838 20.9396 22.5542 21.6236 22.5542C21.9436 22.5542 22.486 22.7142 23.7604 23.9414C25.2164 25.3974 25.4572 26.0494 26.2724 26.0494H28.4164C29.0276 26.0494 29.3372 25.7438 29.1588 25.139C28.7524 23.8686 25.9964 21.255 25.8764 21.0806C25.5564 20.6726 25.6508 20.491 25.8764 20.127C25.8764 20.123 28.494 16.4382 28.7628 15.1902Z" fill="white"/></g><defs><clipPath id="clip0_574_1467"><rect width="40" height="40" fill="white"/></clipPath></defs></svg>