<svg width="40" height="40" viewBox="0 0 40 40" fill="none" xmlns="http://www.w3.org/2000/svg"><g clip-path="url(#clip0_574_1471)"><path d="M32 0H8C3.58172 0 0 3.58172 0 8V32C0 36.4183 3.58172 40 8 40H32C36.4183 40 40 36.4183 40 32V8C40 3.58172 36.4183 0 32 0Z" fill="#35C759"/><path d="M12.8773 24.5139C12.132 23.1731 11.7401 21.6647 11.7383 20.1307C11.741 17.7253 12.6979 15.419 14.3988 13.7182C16.0997 12.0173 18.4055 11.0604 20.8109 11.0576C23.2163 11.0604 25.5226 12.0173 27.2234 13.7182C28.9243 15.419 29.8812 17.7253 29.884 20.1307C29.8812 22.5361 28.9243 24.8423 27.2234 26.5432C25.5226 28.244 23.2163 29.2006 20.8109 29.2033C19.3043 29.2019 17.8222 28.8235 16.4992 28.1025L11.5605 29.4283L12.8773 24.5139ZM17.0559 26.4482C18.1912 27.1265 19.4884 27.4856 20.8109 27.4881C22.7625 27.4868 24.6341 26.711 26.0141 25.3311C27.3941 23.9511 28.1698 22.0799 28.1711 20.1283C28.1698 18.1767 27.3941 16.3052 26.0141 14.9252C24.6341 13.5452 22.7625 12.7694 20.8109 12.7682C18.8593 12.7694 16.9882 13.5452 15.6082 14.9252C14.2282 16.3052 13.4524 18.1767 13.4512 20.1283C13.4526 21.4744 13.8244 22.7941 14.5262 23.9428L14.7176 24.2568L13.9816 27.0018L16.7398 26.2611L17.0559 26.4482ZM21.6773 23.8443C21.1314 23.6589 20.6092 23.4104 20.1207 23.1041C19.146 22.5001 18.2981 21.7122 17.6246 20.7842C17.4166 20.5036 17.2246 20.2118 17.0488 19.91C16.8033 19.5161 16.6175 19.0877 16.4977 18.6393C16.4513 18.4507 16.4272 18.2576 16.4262 18.0635C16.4139 17.7216 16.4787 17.3813 16.6156 17.0678C16.7526 16.7543 16.9584 16.4755 17.2176 16.2521C17.3687 16.1175 17.556 16.03 17.7563 16.0002C17.9565 15.9704 18.1607 15.9994 18.3445 16.0842C18.7003 16.3842 18.9625 16.78 19.0992 17.2248C19.2754 17.5362 19.3585 17.8918 19.3391 18.249C19.239 18.5799 19.0549 18.8792 18.8047 19.1178C18.7359 19.1781 18.6929 19.2623 18.6844 19.3533C18.6759 19.4444 18.7025 19.5353 18.759 19.6072C19.4268 20.7524 20.4615 21.6391 21.6953 22.124C21.7645 22.1619 21.8448 22.1737 21.9219 22.1568C21.9989 22.1399 22.0675 22.0956 22.1145 22.0322C22.3313 21.7626 22.5472 21.2323 22.8848 21.0963C23.1095 21.0438 23.3428 21.0426 23.568 21.0932C23.7931 21.1437 24.0041 21.2446 24.1848 21.3881C24.5328 21.5977 25.1143 21.8506 25.2063 22.2826C25.2467 22.4935 25.2203 22.7115 25.1305 22.9064C24.9766 23.2281 24.7463 23.5074 24.4602 23.7201C24.174 23.9328 23.8403 24.0729 23.4879 24.1275C23.356 24.1526 23.2221 24.1653 23.0879 24.1658C22.6033 24.1364 22.1267 24.0279 21.6773 23.8443Z" fill="white"/></g><defs><clipPath id="clip0_574_1471"><rect width="40" height="40" fill="white"/></clipPath></defs></svg>